<mxfile host="app.diagrams.net" modified="2021-05-27T13:23:31.830Z" agent="5.0 (Windows NT 10.0; Win64; x64) AppleWebKit/537.36 (KHTML, like Gecko) Chrome/90.0.4430.212 Safari/537.36" etag="_yp0dpVe-mjRDNeAEcBl" version="14.7.2" type="github">
  <diagram id="j0WvEA7-wvlGlDzOGSA8" name="Page-1">
    <mxGraphModel dx="1221" dy="645" grid="1" gridSize="10" guides="1" tooltips="1" connect="1" arrows="1" fold="1" page="1" pageScale="1" pageWidth="850" pageHeight="1100" math="0" shadow="0">
      <root>
        <mxCell id="0" />
        <mxCell id="1" parent="0" />
        <mxCell id="sPwfOfGDyJVNLyl3Wog5-1" value="3" style="rounded=0;whiteSpace=wrap;html=1;fontSize=18;fontStyle=1;sketch=1;fillColor=#CCCCCC;" parent="1" vertex="1">
          <mxGeometry x="20" y="200" width="40" height="40" as="geometry" />
        </mxCell>
        <mxCell id="sPwfOfGDyJVNLyl3Wog5-2" value="27" style="rounded=0;whiteSpace=wrap;html=1;fontSize=18;sketch=1;fontStyle=1" parent="1" vertex="1">
          <mxGeometry x="60" y="200" width="40" height="40" as="geometry" />
        </mxCell>
        <mxCell id="sPwfOfGDyJVNLyl3Wog5-3" value="16" style="rounded=0;whiteSpace=wrap;html=1;fontSize=18;sketch=1;fontStyle=1" parent="1" vertex="1">
          <mxGeometry x="100" y="200" width="40" height="40" as="geometry" />
        </mxCell>
        <mxCell id="sPwfOfGDyJVNLyl3Wog5-4" value="6" style="rounded=0;whiteSpace=wrap;html=1;fontSize=18;sketch=1;fontStyle=1" parent="1" vertex="1">
          <mxGeometry x="140" y="200" width="40" height="40" as="geometry" />
        </mxCell>
        <mxCell id="sPwfOfGDyJVNLyl3Wog5-5" value="9" style="rounded=0;whiteSpace=wrap;html=1;fontSize=18;sketch=1;fontStyle=1" parent="1" vertex="1">
          <mxGeometry x="180" y="200" width="40" height="40" as="geometry" />
        </mxCell>
        <mxCell id="sPwfOfGDyJVNLyl3Wog5-7" value="22" style="rounded=0;whiteSpace=wrap;html=1;fontSize=18;sketch=1;fontStyle=1" parent="1" vertex="1">
          <mxGeometry x="220" y="200" width="40" height="40" as="geometry" />
        </mxCell>
        <mxCell id="sPwfOfGDyJVNLyl3Wog5-8" value="4" style="rounded=0;whiteSpace=wrap;html=1;fontSize=18;sketch=1;fontStyle=1" parent="1" vertex="1">
          <mxGeometry x="260" y="200" width="40" height="40" as="geometry" />
        </mxCell>
        <mxCell id="sPwfOfGDyJVNLyl3Wog5-9" value="21" style="rounded=0;whiteSpace=wrap;html=1;fontSize=18;sketch=1;fontStyle=1" parent="1" vertex="1">
          <mxGeometry x="300" y="200" width="40" height="40" as="geometry" />
        </mxCell>
        <mxCell id="sPwfOfGDyJVNLyl3Wog5-10" value="1" style="rounded=0;whiteSpace=wrap;html=1;fontSize=18;sketch=1;fontStyle=1" parent="1" vertex="1">
          <mxGeometry x="340" y="200" width="40" height="40" as="geometry" />
        </mxCell>
        <mxCell id="sPwfOfGDyJVNLyl3Wog5-11" value="19" style="rounded=0;whiteSpace=wrap;html=1;fontSize=18;sketch=1;fontStyle=1" parent="1" vertex="1">
          <mxGeometry x="380" y="200" width="40" height="40" as="geometry" />
        </mxCell>
        <mxCell id="sPwfOfGDyJVNLyl3Wog5-12" value="18" style="rounded=0;whiteSpace=wrap;html=1;fontSize=18;sketch=1;fontStyle=1" parent="1" vertex="1">
          <mxGeometry x="420" y="200" width="40" height="40" as="geometry" />
        </mxCell>
        <mxCell id="sPwfOfGDyJVNLyl3Wog5-13" value="17" style="rounded=0;whiteSpace=wrap;html=1;fontSize=18;sketch=1;fontStyle=1" parent="1" vertex="1">
          <mxGeometry x="460" y="200" width="40" height="40" as="geometry" />
        </mxCell>
        <mxCell id="sPwfOfGDyJVNLyl3Wog5-14" value="24" style="rounded=0;whiteSpace=wrap;html=1;fontSize=18;sketch=1;fontStyle=1" parent="1" vertex="1">
          <mxGeometry x="500" y="200" width="40" height="40" as="geometry" />
        </mxCell>
        <mxCell id="sPwfOfGDyJVNLyl3Wog5-15" value="30" style="rounded=0;whiteSpace=wrap;html=1;fontSize=18;sketch=1;fontStyle=1" parent="1" vertex="1">
          <mxGeometry x="540" y="200" width="40" height="40" as="geometry" />
        </mxCell>
        <mxCell id="sPwfOfGDyJVNLyl3Wog5-16" value="14" style="rounded=0;whiteSpace=wrap;html=1;fontSize=18;sketch=1;fontStyle=1" parent="1" vertex="1">
          <mxGeometry x="580" y="200" width="40" height="40" as="geometry" />
        </mxCell>
        <mxCell id="sPwfOfGDyJVNLyl3Wog5-17" value="15" style="rounded=0;whiteSpace=wrap;html=1;fontSize=18;sketch=1;fontStyle=1" parent="1" vertex="1">
          <mxGeometry x="620" y="200" width="40" height="40" as="geometry" />
        </mxCell>
        <mxCell id="sPwfOfGDyJVNLyl3Wog5-18" value="12" style="rounded=0;whiteSpace=wrap;html=1;fontSize=18;sketch=1;fontStyle=1" parent="1" vertex="1">
          <mxGeometry x="660" y="200" width="40" height="40" as="geometry" />
        </mxCell>
        <mxCell id="sPwfOfGDyJVNLyl3Wog5-19" value="20" style="rounded=0;whiteSpace=wrap;html=1;fontSize=18;sketch=1;fontStyle=1" parent="1" vertex="1">
          <mxGeometry x="700" y="200" width="40" height="40" as="geometry" />
        </mxCell>
        <mxCell id="sPwfOfGDyJVNLyl3Wog5-20" value="11" style="rounded=0;whiteSpace=wrap;html=1;fontSize=18;sketch=1;fontStyle=1" parent="1" vertex="1">
          <mxGeometry x="740" y="200" width="40" height="40" as="geometry" />
        </mxCell>
        <mxCell id="sPwfOfGDyJVNLyl3Wog5-21" value="19" style="rounded=0;whiteSpace=wrap;html=1;fontSize=18;sketch=1;fontStyle=1" parent="1" vertex="1">
          <mxGeometry x="780" y="200" width="40" height="40" as="geometry" />
        </mxCell>
        <mxCell id="sPwfOfGDyJVNLyl3Wog5-22" value="18" style="rounded=0;whiteSpace=wrap;html=1;fontSize=18;fontStyle=0;sketch=1;" parent="1" vertex="1">
          <mxGeometry x="20" y="40" width="40" height="40" as="geometry" />
        </mxCell>
        <mxCell id="sPwfOfGDyJVNLyl3Wog5-23" value="15" style="rounded=0;whiteSpace=wrap;html=1;fontSize=18;sketch=1;" parent="1" vertex="1">
          <mxGeometry x="60" y="40" width="40" height="40" as="geometry" />
        </mxCell>
        <mxCell id="sPwfOfGDyJVNLyl3Wog5-24" value="24" style="rounded=0;whiteSpace=wrap;html=1;fontSize=18;sketch=1;" parent="1" vertex="1">
          <mxGeometry x="100" y="40" width="40" height="40" as="geometry" />
        </mxCell>
        <mxCell id="sPwfOfGDyJVNLyl3Wog5-25" value="19" style="rounded=0;whiteSpace=wrap;html=1;fontSize=18;sketch=1;" parent="1" vertex="1">
          <mxGeometry x="140" y="40" width="40" height="40" as="geometry" />
        </mxCell>
        <mxCell id="sPwfOfGDyJVNLyl3Wog5-26" value="12" style="rounded=0;whiteSpace=wrap;html=1;fontSize=18;sketch=1;" parent="1" vertex="1">
          <mxGeometry x="180" y="40" width="40" height="40" as="geometry" />
        </mxCell>
        <mxCell id="sPwfOfGDyJVNLyl3Wog5-27" value="10" style="rounded=0;whiteSpace=wrap;html=1;fontSize=18;sketch=1;" parent="1" vertex="1">
          <mxGeometry x="220" y="40" width="40" height="40" as="geometry" />
        </mxCell>
        <mxCell id="sPwfOfGDyJVNLyl3Wog5-28" value="20" style="rounded=0;whiteSpace=wrap;html=1;fontSize=18;sketch=1;" parent="1" vertex="1">
          <mxGeometry x="260" y="40" width="40" height="40" as="geometry" />
        </mxCell>
        <mxCell id="sPwfOfGDyJVNLyl3Wog5-29" value="1" style="rounded=0;whiteSpace=wrap;html=1;fontSize=18;sketch=1;" parent="1" vertex="1">
          <mxGeometry x="300" y="40" width="40" height="40" as="geometry" />
        </mxCell>
        <mxCell id="sPwfOfGDyJVNLyl3Wog5-30" value="8" style="rounded=0;whiteSpace=wrap;html=1;fontSize=18;sketch=1;" parent="1" vertex="1">
          <mxGeometry x="340" y="40" width="40" height="40" as="geometry" />
        </mxCell>
        <mxCell id="sPwfOfGDyJVNLyl3Wog5-31" value="23" style="rounded=0;whiteSpace=wrap;html=1;fontSize=18;sketch=1;" parent="1" vertex="1">
          <mxGeometry x="380" y="40" width="40" height="40" as="geometry" />
        </mxCell>
        <mxCell id="sPwfOfGDyJVNLyl3Wog5-32" value="12" style="rounded=0;whiteSpace=wrap;html=1;fontSize=18;sketch=1;" parent="1" vertex="1">
          <mxGeometry x="420" y="40" width="40" height="40" as="geometry" />
        </mxCell>
        <mxCell id="sPwfOfGDyJVNLyl3Wog5-33" value="26" style="rounded=0;whiteSpace=wrap;html=1;fontSize=18;sketch=1;" parent="1" vertex="1">
          <mxGeometry x="460" y="40" width="40" height="40" as="geometry" />
        </mxCell>
        <mxCell id="sPwfOfGDyJVNLyl3Wog5-34" value="6" style="rounded=0;whiteSpace=wrap;html=1;fontSize=18;sketch=1;" parent="1" vertex="1">
          <mxGeometry x="500" y="40" width="40" height="40" as="geometry" />
        </mxCell>
        <mxCell id="sPwfOfGDyJVNLyl3Wog5-35" value="29" style="rounded=0;whiteSpace=wrap;html=1;fontSize=18;sketch=1;" parent="1" vertex="1">
          <mxGeometry x="540" y="40" width="40" height="40" as="geometry" />
        </mxCell>
        <mxCell id="sPwfOfGDyJVNLyl3Wog5-36" value="27" style="rounded=0;whiteSpace=wrap;html=1;fontSize=18;sketch=1;" parent="1" vertex="1">
          <mxGeometry x="580" y="40" width="40" height="40" as="geometry" />
        </mxCell>
        <mxCell id="sPwfOfGDyJVNLyl3Wog5-37" value="2" style="rounded=0;whiteSpace=wrap;html=1;fontSize=18;sketch=1;" parent="1" vertex="1">
          <mxGeometry x="620" y="40" width="40" height="40" as="geometry" />
        </mxCell>
        <mxCell id="sPwfOfGDyJVNLyl3Wog5-38" value="13" style="rounded=0;whiteSpace=wrap;html=1;fontSize=18;sketch=1;" parent="1" vertex="1">
          <mxGeometry x="660" y="40" width="40" height="40" as="geometry" />
        </mxCell>
        <mxCell id="sPwfOfGDyJVNLyl3Wog5-39" value="30" style="rounded=0;whiteSpace=wrap;html=1;fontSize=18;sketch=1;" parent="1" vertex="1">
          <mxGeometry x="700" y="40" width="40" height="40" as="geometry" />
        </mxCell>
        <mxCell id="sPwfOfGDyJVNLyl3Wog5-40" value="28" style="rounded=0;whiteSpace=wrap;html=1;fontSize=18;sketch=1;" parent="1" vertex="1">
          <mxGeometry x="740" y="40" width="40" height="40" as="geometry" />
        </mxCell>
        <mxCell id="sPwfOfGDyJVNLyl3Wog5-41" value="24" style="rounded=0;whiteSpace=wrap;html=1;fontSize=18;sketch=1;" parent="1" vertex="1">
          <mxGeometry x="780" y="40" width="40" height="40" as="geometry" />
        </mxCell>
        <mxCell id="3_953Ben1oo5WWHwkarm-6" value="" style="group" vertex="1" connectable="0" parent="1">
          <mxGeometry x="40" y="240" width="40" height="30" as="geometry" />
        </mxCell>
        <mxCell id="3_953Ben1oo5WWHwkarm-2" value="" style="endArrow=none;html=1;" edge="1" parent="3_953Ben1oo5WWHwkarm-6">
          <mxGeometry width="50" height="50" relative="1" as="geometry">
            <mxPoint x="40" y="30" as="sourcePoint" />
            <mxPoint y="30" as="targetPoint" />
          </mxGeometry>
        </mxCell>
        <mxCell id="3_953Ben1oo5WWHwkarm-4" value="" style="endArrow=classic;html=1;strokeWidth=1;" edge="1" parent="3_953Ben1oo5WWHwkarm-6">
          <mxGeometry width="50" height="50" relative="1" as="geometry">
            <mxPoint y="30" as="sourcePoint" />
            <mxPoint as="targetPoint" />
          </mxGeometry>
        </mxCell>
        <mxCell id="3_953Ben1oo5WWHwkarm-5" value="" style="endArrow=classic;html=1;strokeWidth=1;" edge="1" parent="3_953Ben1oo5WWHwkarm-6">
          <mxGeometry width="50" height="50" relative="1" as="geometry">
            <mxPoint x="40" y="30" as="sourcePoint" />
            <mxPoint x="39.5" as="targetPoint" />
          </mxGeometry>
        </mxCell>
        <mxCell id="3_953Ben1oo5WWHwkarm-226" value="3" style="rounded=0;whiteSpace=wrap;html=1;fontSize=18;fontStyle=1;sketch=1;fillColor=#FFFFFF;" vertex="1" parent="1">
          <mxGeometry x="20" y="350" width="40" height="40" as="geometry" />
        </mxCell>
        <mxCell id="3_953Ben1oo5WWHwkarm-227" value="27" style="rounded=0;whiteSpace=wrap;html=1;fontSize=18;sketch=1;fontStyle=1" vertex="1" parent="1">
          <mxGeometry x="60" y="350" width="40" height="40" as="geometry" />
        </mxCell>
        <mxCell id="3_953Ben1oo5WWHwkarm-228" value="16" style="rounded=0;whiteSpace=wrap;html=1;fontSize=18;sketch=1;fontStyle=1" vertex="1" parent="1">
          <mxGeometry x="100" y="350" width="40" height="40" as="geometry" />
        </mxCell>
        <mxCell id="3_953Ben1oo5WWHwkarm-229" value="6" style="rounded=0;whiteSpace=wrap;html=1;fontSize=18;sketch=1;fontStyle=1" vertex="1" parent="1">
          <mxGeometry x="140" y="350" width="40" height="40" as="geometry" />
        </mxCell>
        <mxCell id="3_953Ben1oo5WWHwkarm-230" value="9" style="rounded=0;whiteSpace=wrap;html=1;fontSize=18;sketch=1;fontStyle=1" vertex="1" parent="1">
          <mxGeometry x="180" y="350" width="40" height="40" as="geometry" />
        </mxCell>
        <mxCell id="3_953Ben1oo5WWHwkarm-231" value="22" style="rounded=0;whiteSpace=wrap;html=1;fontSize=18;sketch=1;fontStyle=1" vertex="1" parent="1">
          <mxGeometry x="220" y="350" width="40" height="40" as="geometry" />
        </mxCell>
        <mxCell id="3_953Ben1oo5WWHwkarm-232" value="4" style="rounded=0;whiteSpace=wrap;html=1;fontSize=18;sketch=1;fontStyle=1" vertex="1" parent="1">
          <mxGeometry x="260" y="350" width="40" height="40" as="geometry" />
        </mxCell>
        <mxCell id="3_953Ben1oo5WWHwkarm-233" value="21" style="rounded=0;whiteSpace=wrap;html=1;fontSize=18;sketch=1;fontStyle=1" vertex="1" parent="1">
          <mxGeometry x="300" y="350" width="40" height="40" as="geometry" />
        </mxCell>
        <mxCell id="3_953Ben1oo5WWHwkarm-234" value="1" style="rounded=0;whiteSpace=wrap;html=1;fontSize=18;sketch=1;fontStyle=1;fillColor=#CCCCCC;" vertex="1" parent="1">
          <mxGeometry x="340" y="350" width="40" height="40" as="geometry" />
        </mxCell>
        <mxCell id="3_953Ben1oo5WWHwkarm-235" value="19" style="rounded=0;whiteSpace=wrap;html=1;fontSize=18;sketch=1;fontStyle=1" vertex="1" parent="1">
          <mxGeometry x="380" y="350" width="40" height="40" as="geometry" />
        </mxCell>
        <mxCell id="3_953Ben1oo5WWHwkarm-236" value="18" style="rounded=0;whiteSpace=wrap;html=1;fontSize=18;sketch=1;fontStyle=1" vertex="1" parent="1">
          <mxGeometry x="420" y="350" width="40" height="40" as="geometry" />
        </mxCell>
        <mxCell id="3_953Ben1oo5WWHwkarm-237" value="17" style="rounded=0;whiteSpace=wrap;html=1;fontSize=18;sketch=1;fontStyle=1" vertex="1" parent="1">
          <mxGeometry x="460" y="350" width="40" height="40" as="geometry" />
        </mxCell>
        <mxCell id="3_953Ben1oo5WWHwkarm-238" value="24" style="rounded=0;whiteSpace=wrap;html=1;fontSize=18;sketch=1;fontStyle=1" vertex="1" parent="1">
          <mxGeometry x="500" y="350" width="40" height="40" as="geometry" />
        </mxCell>
        <mxCell id="3_953Ben1oo5WWHwkarm-239" value="30" style="rounded=0;whiteSpace=wrap;html=1;fontSize=18;sketch=1;fontStyle=1" vertex="1" parent="1">
          <mxGeometry x="540" y="350" width="40" height="40" as="geometry" />
        </mxCell>
        <mxCell id="3_953Ben1oo5WWHwkarm-240" value="14" style="rounded=0;whiteSpace=wrap;html=1;fontSize=18;sketch=1;fontStyle=1" vertex="1" parent="1">
          <mxGeometry x="580" y="350" width="40" height="40" as="geometry" />
        </mxCell>
        <mxCell id="3_953Ben1oo5WWHwkarm-241" value="15" style="rounded=0;whiteSpace=wrap;html=1;fontSize=18;sketch=1;fontStyle=1" vertex="1" parent="1">
          <mxGeometry x="620" y="350" width="40" height="40" as="geometry" />
        </mxCell>
        <mxCell id="3_953Ben1oo5WWHwkarm-242" value="12" style="rounded=0;whiteSpace=wrap;html=1;fontSize=18;sketch=1;fontStyle=1" vertex="1" parent="1">
          <mxGeometry x="660" y="350" width="40" height="40" as="geometry" />
        </mxCell>
        <mxCell id="3_953Ben1oo5WWHwkarm-243" value="20" style="rounded=0;whiteSpace=wrap;html=1;fontSize=18;sketch=1;fontStyle=1" vertex="1" parent="1">
          <mxGeometry x="700" y="350" width="40" height="40" as="geometry" />
        </mxCell>
        <mxCell id="3_953Ben1oo5WWHwkarm-244" value="11" style="rounded=0;whiteSpace=wrap;html=1;fontSize=18;sketch=1;fontStyle=1" vertex="1" parent="1">
          <mxGeometry x="740" y="350" width="40" height="40" as="geometry" />
        </mxCell>
        <mxCell id="3_953Ben1oo5WWHwkarm-245" value="19" style="rounded=0;whiteSpace=wrap;html=1;fontSize=18;sketch=1;fontStyle=1" vertex="1" parent="1">
          <mxGeometry x="780" y="350" width="40" height="40" as="geometry" />
        </mxCell>
        <mxCell id="3_953Ben1oo5WWHwkarm-251" value="" style="group" vertex="1" connectable="0" parent="1">
          <mxGeometry x="40" y="390" width="320" height="30" as="geometry" />
        </mxCell>
        <mxCell id="3_953Ben1oo5WWHwkarm-247" value="" style="endArrow=none;html=1;" edge="1" parent="3_953Ben1oo5WWHwkarm-251">
          <mxGeometry x="0.7866329402543706" width="57.002386974954575" height="50" as="geometry">
            <mxPoint x="320" y="30" as="sourcePoint" />
            <mxPoint x="0.7866329402543706" y="30" as="targetPoint" />
          </mxGeometry>
        </mxCell>
        <mxCell id="3_953Ben1oo5WWHwkarm-248" value="" style="endArrow=classic;html=1;strokeWidth=1;" edge="1" parent="3_953Ben1oo5WWHwkarm-251">
          <mxGeometry width="57.002386974954575" height="50" as="geometry">
            <mxPoint y="30" as="sourcePoint" />
            <mxPoint as="targetPoint" />
          </mxGeometry>
        </mxCell>
        <mxCell id="3_953Ben1oo5WWHwkarm-250" value="" style="endArrow=classic;html=1;strokeWidth=1;" edge="1" parent="3_953Ben1oo5WWHwkarm-251">
          <mxGeometry x="319.61238376857034" width="57.002386974954575" height="50" as="geometry">
            <mxPoint x="319.6123837685703" y="30" as="sourcePoint" />
            <mxPoint x="319.6123837685703" as="targetPoint" />
          </mxGeometry>
        </mxCell>
        <mxCell id="3_953Ben1oo5WWHwkarm-276" value="&lt;b style=&quot;font-size: 16px;&quot;&gt;Iterasi 1&lt;/b&gt;" style="rounded=0;whiteSpace=wrap;html=1;sketch=1;strokeColor=#000000;fontSize=16;glass=0;shadow=1;fillColor=#FFFFFF;" vertex="1" parent="1">
          <mxGeometry x="20" y="150" width="90" height="30" as="geometry" />
        </mxCell>
        <mxCell id="3_953Ben1oo5WWHwkarm-279" value="" style="endArrow=none;dashed=1;html=1;dashPattern=1 3;strokeWidth=6;fontSize=16;" edge="1" parent="1">
          <mxGeometry width="50" height="50" relative="1" as="geometry">
            <mxPoint x="370" y="310" as="sourcePoint" />
            <mxPoint x="430" y="310" as="targetPoint" />
          </mxGeometry>
        </mxCell>
        <mxCell id="3_953Ben1oo5WWHwkarm-280" value="" style="endArrow=none;dashed=1;html=1;dashPattern=1 3;strokeWidth=6;fontSize=16;" edge="1" parent="1">
          <mxGeometry width="50" height="50" relative="1" as="geometry">
            <mxPoint x="370" y="550" as="sourcePoint" />
            <mxPoint x="430" y="550" as="targetPoint" />
          </mxGeometry>
        </mxCell>
        <mxCell id="3_953Ben1oo5WWHwkarm-281" value="3" style="rounded=0;whiteSpace=wrap;html=1;fontSize=18;fontStyle=1;sketch=1;fillColor=#FFFFFF;" vertex="1" parent="1">
          <mxGeometry x="20" y="590" width="40" height="40" as="geometry" />
        </mxCell>
        <mxCell id="3_953Ben1oo5WWHwkarm-282" value="27" style="rounded=0;whiteSpace=wrap;html=1;fontSize=18;sketch=1;fontStyle=1" vertex="1" parent="1">
          <mxGeometry x="60" y="590" width="40" height="40" as="geometry" />
        </mxCell>
        <mxCell id="3_953Ben1oo5WWHwkarm-283" value="16" style="rounded=0;whiteSpace=wrap;html=1;fontSize=18;sketch=1;fontStyle=1" vertex="1" parent="1">
          <mxGeometry x="100" y="590" width="40" height="40" as="geometry" />
        </mxCell>
        <mxCell id="3_953Ben1oo5WWHwkarm-284" value="6" style="rounded=0;whiteSpace=wrap;html=1;fontSize=18;sketch=1;fontStyle=1" vertex="1" parent="1">
          <mxGeometry x="140" y="590" width="40" height="40" as="geometry" />
        </mxCell>
        <mxCell id="3_953Ben1oo5WWHwkarm-285" value="9" style="rounded=0;whiteSpace=wrap;html=1;fontSize=18;sketch=1;fontStyle=1" vertex="1" parent="1">
          <mxGeometry x="180" y="590" width="40" height="40" as="geometry" />
        </mxCell>
        <mxCell id="3_953Ben1oo5WWHwkarm-286" value="22" style="rounded=0;whiteSpace=wrap;html=1;fontSize=18;sketch=1;fontStyle=1" vertex="1" parent="1">
          <mxGeometry x="220" y="590" width="40" height="40" as="geometry" />
        </mxCell>
        <mxCell id="3_953Ben1oo5WWHwkarm-287" value="4" style="rounded=0;whiteSpace=wrap;html=1;fontSize=18;sketch=1;fontStyle=1" vertex="1" parent="1">
          <mxGeometry x="260" y="590" width="40" height="40" as="geometry" />
        </mxCell>
        <mxCell id="3_953Ben1oo5WWHwkarm-288" value="21" style="rounded=0;whiteSpace=wrap;html=1;fontSize=18;sketch=1;fontStyle=1" vertex="1" parent="1">
          <mxGeometry x="300" y="590" width="40" height="40" as="geometry" />
        </mxCell>
        <mxCell id="3_953Ben1oo5WWHwkarm-289" value="1" style="rounded=0;whiteSpace=wrap;html=1;fontSize=18;sketch=1;fontStyle=1;fillColor=#CCCCCC;" vertex="1" parent="1">
          <mxGeometry x="340" y="590" width="40" height="40" as="geometry" />
        </mxCell>
        <mxCell id="3_953Ben1oo5WWHwkarm-290" value="19" style="rounded=0;whiteSpace=wrap;html=1;fontSize=18;sketch=1;fontStyle=1" vertex="1" parent="1">
          <mxGeometry x="380" y="590" width="40" height="40" as="geometry" />
        </mxCell>
        <mxCell id="3_953Ben1oo5WWHwkarm-291" value="18" style="rounded=0;whiteSpace=wrap;html=1;fontSize=18;sketch=1;fontStyle=1" vertex="1" parent="1">
          <mxGeometry x="420" y="590" width="40" height="40" as="geometry" />
        </mxCell>
        <mxCell id="3_953Ben1oo5WWHwkarm-292" value="17" style="rounded=0;whiteSpace=wrap;html=1;fontSize=18;sketch=1;fontStyle=1" vertex="1" parent="1">
          <mxGeometry x="460" y="590" width="40" height="40" as="geometry" />
        </mxCell>
        <mxCell id="3_953Ben1oo5WWHwkarm-293" value="24" style="rounded=0;whiteSpace=wrap;html=1;fontSize=18;sketch=1;fontStyle=1" vertex="1" parent="1">
          <mxGeometry x="500" y="590" width="40" height="40" as="geometry" />
        </mxCell>
        <mxCell id="3_953Ben1oo5WWHwkarm-294" value="30" style="rounded=0;whiteSpace=wrap;html=1;fontSize=18;sketch=1;fontStyle=1" vertex="1" parent="1">
          <mxGeometry x="540" y="590" width="40" height="40" as="geometry" />
        </mxCell>
        <mxCell id="3_953Ben1oo5WWHwkarm-295" value="14" style="rounded=0;whiteSpace=wrap;html=1;fontSize=18;sketch=1;fontStyle=1" vertex="1" parent="1">
          <mxGeometry x="580" y="590" width="40" height="40" as="geometry" />
        </mxCell>
        <mxCell id="3_953Ben1oo5WWHwkarm-296" value="15" style="rounded=0;whiteSpace=wrap;html=1;fontSize=18;sketch=1;fontStyle=1" vertex="1" parent="1">
          <mxGeometry x="620" y="590" width="40" height="40" as="geometry" />
        </mxCell>
        <mxCell id="3_953Ben1oo5WWHwkarm-297" value="12" style="rounded=0;whiteSpace=wrap;html=1;fontSize=18;sketch=1;fontStyle=1" vertex="1" parent="1">
          <mxGeometry x="660" y="590" width="40" height="40" as="geometry" />
        </mxCell>
        <mxCell id="3_953Ben1oo5WWHwkarm-298" value="20" style="rounded=0;whiteSpace=wrap;html=1;fontSize=18;sketch=1;fontStyle=1" vertex="1" parent="1">
          <mxGeometry x="700" y="590" width="40" height="40" as="geometry" />
        </mxCell>
        <mxCell id="3_953Ben1oo5WWHwkarm-299" value="11" style="rounded=0;whiteSpace=wrap;html=1;fontSize=18;sketch=1;fontStyle=1" vertex="1" parent="1">
          <mxGeometry x="740" y="590" width="40" height="40" as="geometry" />
        </mxCell>
        <mxCell id="3_953Ben1oo5WWHwkarm-300" value="19" style="rounded=0;whiteSpace=wrap;html=1;fontSize=18;sketch=1;fontStyle=1" vertex="1" parent="1">
          <mxGeometry x="780" y="590" width="40" height="40" as="geometry" />
        </mxCell>
        <mxCell id="3_953Ben1oo5WWHwkarm-330" value="1" style="rounded=0;whiteSpace=wrap;html=1;fontSize=18;fontStyle=1;sketch=1;fontColor=#333333;fillColor=#CCCCCC;" vertex="1" parent="1">
          <mxGeometry x="20" y="680" width="40" height="40" as="geometry" />
        </mxCell>
        <mxCell id="3_953Ben1oo5WWHwkarm-331" value="27" style="rounded=0;whiteSpace=wrap;html=1;fontSize=18;sketch=1;fontStyle=1" vertex="1" parent="1">
          <mxGeometry x="60" y="680" width="40" height="40" as="geometry" />
        </mxCell>
        <mxCell id="3_953Ben1oo5WWHwkarm-332" value="16" style="rounded=0;whiteSpace=wrap;html=1;fontSize=18;sketch=1;fontStyle=1" vertex="1" parent="1">
          <mxGeometry x="100" y="680" width="40" height="40" as="geometry" />
        </mxCell>
        <mxCell id="3_953Ben1oo5WWHwkarm-333" value="6" style="rounded=0;whiteSpace=wrap;html=1;fontSize=18;sketch=1;fontStyle=1" vertex="1" parent="1">
          <mxGeometry x="140" y="680" width="40" height="40" as="geometry" />
        </mxCell>
        <mxCell id="3_953Ben1oo5WWHwkarm-334" value="9" style="rounded=0;whiteSpace=wrap;html=1;fontSize=18;sketch=1;fontStyle=1" vertex="1" parent="1">
          <mxGeometry x="180" y="680" width="40" height="40" as="geometry" />
        </mxCell>
        <mxCell id="3_953Ben1oo5WWHwkarm-335" value="22" style="rounded=0;whiteSpace=wrap;html=1;fontSize=18;sketch=1;fontStyle=1" vertex="1" parent="1">
          <mxGeometry x="220" y="680" width="40" height="40" as="geometry" />
        </mxCell>
        <mxCell id="3_953Ben1oo5WWHwkarm-336" value="4" style="rounded=0;whiteSpace=wrap;html=1;fontSize=18;sketch=1;fontStyle=1" vertex="1" parent="1">
          <mxGeometry x="260" y="680" width="40" height="40" as="geometry" />
        </mxCell>
        <mxCell id="3_953Ben1oo5WWHwkarm-337" value="21" style="rounded=0;whiteSpace=wrap;html=1;fontSize=18;sketch=1;fontStyle=1" vertex="1" parent="1">
          <mxGeometry x="300" y="680" width="40" height="40" as="geometry" />
        </mxCell>
        <mxCell id="3_953Ben1oo5WWHwkarm-338" value="3" style="rounded=0;whiteSpace=wrap;html=1;fontSize=18;sketch=1;fontStyle=1;fillColor=#FFFFFF;" vertex="1" parent="1">
          <mxGeometry x="340" y="680" width="40" height="40" as="geometry" />
        </mxCell>
        <mxCell id="3_953Ben1oo5WWHwkarm-339" value="19" style="rounded=0;whiteSpace=wrap;html=1;fontSize=18;sketch=1;fontStyle=1" vertex="1" parent="1">
          <mxGeometry x="380" y="680" width="40" height="40" as="geometry" />
        </mxCell>
        <mxCell id="3_953Ben1oo5WWHwkarm-340" value="18" style="rounded=0;whiteSpace=wrap;html=1;fontSize=18;sketch=1;fontStyle=1" vertex="1" parent="1">
          <mxGeometry x="420" y="680" width="40" height="40" as="geometry" />
        </mxCell>
        <mxCell id="3_953Ben1oo5WWHwkarm-341" value="17" style="rounded=0;whiteSpace=wrap;html=1;fontSize=18;sketch=1;fontStyle=1" vertex="1" parent="1">
          <mxGeometry x="460" y="680" width="40" height="40" as="geometry" />
        </mxCell>
        <mxCell id="3_953Ben1oo5WWHwkarm-342" value="24" style="rounded=0;whiteSpace=wrap;html=1;fontSize=18;sketch=1;fontStyle=1" vertex="1" parent="1">
          <mxGeometry x="500" y="680" width="40" height="40" as="geometry" />
        </mxCell>
        <mxCell id="3_953Ben1oo5WWHwkarm-343" value="30" style="rounded=0;whiteSpace=wrap;html=1;fontSize=18;sketch=1;fontStyle=1" vertex="1" parent="1">
          <mxGeometry x="540" y="680" width="40" height="40" as="geometry" />
        </mxCell>
        <mxCell id="3_953Ben1oo5WWHwkarm-344" value="14" style="rounded=0;whiteSpace=wrap;html=1;fontSize=18;sketch=1;fontStyle=1" vertex="1" parent="1">
          <mxGeometry x="580" y="680" width="40" height="40" as="geometry" />
        </mxCell>
        <mxCell id="3_953Ben1oo5WWHwkarm-345" value="15" style="rounded=0;whiteSpace=wrap;html=1;fontSize=18;sketch=1;fontStyle=1" vertex="1" parent="1">
          <mxGeometry x="620" y="680" width="40" height="40" as="geometry" />
        </mxCell>
        <mxCell id="3_953Ben1oo5WWHwkarm-346" value="12" style="rounded=0;whiteSpace=wrap;html=1;fontSize=18;sketch=1;fontStyle=1" vertex="1" parent="1">
          <mxGeometry x="660" y="680" width="40" height="40" as="geometry" />
        </mxCell>
        <mxCell id="3_953Ben1oo5WWHwkarm-347" value="20" style="rounded=0;whiteSpace=wrap;html=1;fontSize=18;sketch=1;fontStyle=1" vertex="1" parent="1">
          <mxGeometry x="700" y="680" width="40" height="40" as="geometry" />
        </mxCell>
        <mxCell id="3_953Ben1oo5WWHwkarm-348" value="11" style="rounded=0;whiteSpace=wrap;html=1;fontSize=18;sketch=1;fontStyle=1" vertex="1" parent="1">
          <mxGeometry x="740" y="680" width="40" height="40" as="geometry" />
        </mxCell>
        <mxCell id="3_953Ben1oo5WWHwkarm-349" value="19" style="rounded=0;whiteSpace=wrap;html=1;fontSize=18;sketch=1;fontStyle=1" vertex="1" parent="1">
          <mxGeometry x="780" y="680" width="40" height="40" as="geometry" />
        </mxCell>
        <mxCell id="3_953Ben1oo5WWHwkarm-350" value="" style="endArrow=none;html=1;" edge="1" parent="1">
          <mxGeometry x="40.78663294025437" y="720" width="57.00238697495457" height="50" as="geometry">
            <mxPoint x="360" y="750" as="sourcePoint" />
            <mxPoint x="40.78663294025455" y="750" as="targetPoint" />
          </mxGeometry>
        </mxCell>
        <mxCell id="3_953Ben1oo5WWHwkarm-351" value="&amp;nbsp;Swapping&amp;nbsp;" style="edgeLabel;html=1;align=center;verticalAlign=middle;resizable=0;points=[];fontSize=16;fontStyle=1" vertex="1" connectable="0" parent="3_953Ben1oo5WWHwkarm-350">
          <mxGeometry relative="1" as="geometry">
            <mxPoint x="7" y="2" as="offset" />
          </mxGeometry>
        </mxCell>
        <mxCell id="3_953Ben1oo5WWHwkarm-352" value="" style="endArrow=classic;html=1;strokeWidth=1;" edge="1" parent="1">
          <mxGeometry x="40" y="720" width="57.00238697495457" height="50" as="geometry">
            <mxPoint x="40" y="750" as="sourcePoint" />
            <mxPoint x="40" y="720" as="targetPoint" />
          </mxGeometry>
        </mxCell>
        <mxCell id="3_953Ben1oo5WWHwkarm-353" value="" style="endArrow=classic;html=1;strokeWidth=1;" edge="1" parent="1">
          <mxGeometry x="359.6123837685704" y="720" width="57.00238697495457" height="50" as="geometry">
            <mxPoint x="359.6123837685702" y="750" as="sourcePoint" />
            <mxPoint x="359.6123837685702" y="720" as="targetPoint" />
          </mxGeometry>
        </mxCell>
        <mxCell id="3_953Ben1oo5WWHwkarm-356" value="" style="group" vertex="1" connectable="0" parent="1">
          <mxGeometry x="360" y="630" width="440" height="30" as="geometry" />
        </mxCell>
        <mxCell id="3_953Ben1oo5WWHwkarm-303" value="" style="endArrow=classic;html=1;strokeWidth=1;" edge="1" parent="3_953Ben1oo5WWHwkarm-356">
          <mxGeometry width="78.37828209056254" height="50" as="geometry">
            <mxPoint y="30" as="sourcePoint" />
            <mxPoint as="targetPoint" />
          </mxGeometry>
        </mxCell>
        <mxCell id="3_953Ben1oo5WWHwkarm-304" value="" style="endArrow=classic;html=1;strokeWidth=1;" edge="1" parent="3_953Ben1oo5WWHwkarm-356">
          <mxGeometry x="439.4670276817843" width="78.37828209056254" height="50" as="geometry">
            <mxPoint x="439.46702768178415" y="30" as="sourcePoint" />
            <mxPoint x="439.46702768178415" as="targetPoint" />
          </mxGeometry>
        </mxCell>
        <mxCell id="3_953Ben1oo5WWHwkarm-354" value="" style="endArrow=none;html=1;" edge="1" parent="3_953Ben1oo5WWHwkarm-356">
          <mxGeometry x="1.0816202928497605" width="78.37828209056254" height="50" as="geometry">
            <mxPoint x="440" y="30" as="sourcePoint" />
            <mxPoint x="1.0816202928500047" y="30" as="targetPoint" />
          </mxGeometry>
        </mxCell>
        <mxCell id="3_953Ben1oo5WWHwkarm-357" value="1" style="rounded=0;whiteSpace=wrap;html=1;fontSize=18;fontStyle=1;sketch=1;fontColor=#333333;fillColor=#CCCCCC;" vertex="1" parent="1">
          <mxGeometry x="20" y="870" width="40" height="40" as="geometry" />
        </mxCell>
        <mxCell id="3_953Ben1oo5WWHwkarm-358" value="27" style="rounded=0;whiteSpace=wrap;html=1;fontSize=18;sketch=1;fontStyle=1;fillColor=#CCCCCC;" vertex="1" parent="1">
          <mxGeometry x="60" y="870" width="40" height="40" as="geometry" />
        </mxCell>
        <mxCell id="3_953Ben1oo5WWHwkarm-359" value="16" style="rounded=0;whiteSpace=wrap;html=1;fontSize=18;sketch=1;fontStyle=1" vertex="1" parent="1">
          <mxGeometry x="100" y="870" width="40" height="40" as="geometry" />
        </mxCell>
        <mxCell id="3_953Ben1oo5WWHwkarm-360" value="6" style="rounded=0;whiteSpace=wrap;html=1;fontSize=18;sketch=1;fontStyle=1" vertex="1" parent="1">
          <mxGeometry x="140" y="870" width="40" height="40" as="geometry" />
        </mxCell>
        <mxCell id="3_953Ben1oo5WWHwkarm-361" value="9" style="rounded=0;whiteSpace=wrap;html=1;fontSize=18;sketch=1;fontStyle=1" vertex="1" parent="1">
          <mxGeometry x="180" y="870" width="40" height="40" as="geometry" />
        </mxCell>
        <mxCell id="3_953Ben1oo5WWHwkarm-362" value="22" style="rounded=0;whiteSpace=wrap;html=1;fontSize=18;sketch=1;fontStyle=1" vertex="1" parent="1">
          <mxGeometry x="220" y="870" width="40" height="40" as="geometry" />
        </mxCell>
        <mxCell id="3_953Ben1oo5WWHwkarm-363" value="4" style="rounded=0;whiteSpace=wrap;html=1;fontSize=18;sketch=1;fontStyle=1" vertex="1" parent="1">
          <mxGeometry x="260" y="870" width="40" height="40" as="geometry" />
        </mxCell>
        <mxCell id="3_953Ben1oo5WWHwkarm-364" value="21" style="rounded=0;whiteSpace=wrap;html=1;fontSize=18;sketch=1;fontStyle=1" vertex="1" parent="1">
          <mxGeometry x="300" y="870" width="40" height="40" as="geometry" />
        </mxCell>
        <mxCell id="3_953Ben1oo5WWHwkarm-365" value="3" style="rounded=0;whiteSpace=wrap;html=1;fontSize=18;sketch=1;fontStyle=1;fillColor=#FFFFFF;" vertex="1" parent="1">
          <mxGeometry x="340" y="870" width="40" height="40" as="geometry" />
        </mxCell>
        <mxCell id="3_953Ben1oo5WWHwkarm-366" value="19" style="rounded=0;whiteSpace=wrap;html=1;fontSize=18;sketch=1;fontStyle=1" vertex="1" parent="1">
          <mxGeometry x="380" y="870" width="40" height="40" as="geometry" />
        </mxCell>
        <mxCell id="3_953Ben1oo5WWHwkarm-367" value="18" style="rounded=0;whiteSpace=wrap;html=1;fontSize=18;sketch=1;fontStyle=1" vertex="1" parent="1">
          <mxGeometry x="420" y="870" width="40" height="40" as="geometry" />
        </mxCell>
        <mxCell id="3_953Ben1oo5WWHwkarm-368" value="17" style="rounded=0;whiteSpace=wrap;html=1;fontSize=18;sketch=1;fontStyle=1" vertex="1" parent="1">
          <mxGeometry x="460" y="870" width="40" height="40" as="geometry" />
        </mxCell>
        <mxCell id="3_953Ben1oo5WWHwkarm-369" value="24" style="rounded=0;whiteSpace=wrap;html=1;fontSize=18;sketch=1;fontStyle=1" vertex="1" parent="1">
          <mxGeometry x="500" y="870" width="40" height="40" as="geometry" />
        </mxCell>
        <mxCell id="3_953Ben1oo5WWHwkarm-370" value="30" style="rounded=0;whiteSpace=wrap;html=1;fontSize=18;sketch=1;fontStyle=1" vertex="1" parent="1">
          <mxGeometry x="540" y="870" width="40" height="40" as="geometry" />
        </mxCell>
        <mxCell id="3_953Ben1oo5WWHwkarm-371" value="14" style="rounded=0;whiteSpace=wrap;html=1;fontSize=18;sketch=1;fontStyle=1" vertex="1" parent="1">
          <mxGeometry x="580" y="870" width="40" height="40" as="geometry" />
        </mxCell>
        <mxCell id="3_953Ben1oo5WWHwkarm-372" value="15" style="rounded=0;whiteSpace=wrap;html=1;fontSize=18;sketch=1;fontStyle=1" vertex="1" parent="1">
          <mxGeometry x="620" y="870" width="40" height="40" as="geometry" />
        </mxCell>
        <mxCell id="3_953Ben1oo5WWHwkarm-373" value="12" style="rounded=0;whiteSpace=wrap;html=1;fontSize=18;sketch=1;fontStyle=1" vertex="1" parent="1">
          <mxGeometry x="660" y="870" width="40" height="40" as="geometry" />
        </mxCell>
        <mxCell id="3_953Ben1oo5WWHwkarm-374" value="20" style="rounded=0;whiteSpace=wrap;html=1;fontSize=18;sketch=1;fontStyle=1" vertex="1" parent="1">
          <mxGeometry x="700" y="870" width="40" height="40" as="geometry" />
        </mxCell>
        <mxCell id="3_953Ben1oo5WWHwkarm-375" value="11" style="rounded=0;whiteSpace=wrap;html=1;fontSize=18;sketch=1;fontStyle=1" vertex="1" parent="1">
          <mxGeometry x="740" y="870" width="40" height="40" as="geometry" />
        </mxCell>
        <mxCell id="3_953Ben1oo5WWHwkarm-376" value="19" style="rounded=0;whiteSpace=wrap;html=1;fontSize=18;sketch=1;fontStyle=1" vertex="1" parent="1">
          <mxGeometry x="780" y="870" width="40" height="40" as="geometry" />
        </mxCell>
        <mxCell id="3_953Ben1oo5WWHwkarm-429" value="" style="group" vertex="1" connectable="0" parent="1">
          <mxGeometry x="80" y="910" width="40" height="30" as="geometry" />
        </mxCell>
        <mxCell id="3_953Ben1oo5WWHwkarm-377" value="" style="endArrow=none;html=1;" edge="1" parent="3_953Ben1oo5WWHwkarm-429">
          <mxGeometry x="0.0983291175317964" width="7.125298371869321" height="50" as="geometry">
            <mxPoint x="40" y="30" as="sourcePoint" />
            <mxPoint x="0.09832911753181861" y="30" as="targetPoint" />
          </mxGeometry>
        </mxCell>
        <mxCell id="3_953Ben1oo5WWHwkarm-379" value="" style="endArrow=classic;html=1;strokeWidth=1;" edge="1" parent="3_953Ben1oo5WWHwkarm-429">
          <mxGeometry width="7.125298371869321" height="50" as="geometry">
            <mxPoint y="30" as="sourcePoint" />
            <mxPoint as="targetPoint" />
          </mxGeometry>
        </mxCell>
        <mxCell id="3_953Ben1oo5WWHwkarm-380" value="" style="endArrow=classic;html=1;strokeWidth=1;" edge="1" parent="3_953Ben1oo5WWHwkarm-429">
          <mxGeometry x="39.9515479710713" width="7.125298371869321" height="50" as="geometry">
            <mxPoint x="39.95154797107128" y="30" as="sourcePoint" />
            <mxPoint x="39.95154797107128" as="targetPoint" />
          </mxGeometry>
        </mxCell>
        <mxCell id="3_953Ben1oo5WWHwkarm-430" value="1" style="rounded=0;whiteSpace=wrap;html=1;fontSize=18;fontStyle=1;sketch=1;fontColor=#333333;fillColor=#CCCCCC;" vertex="1" parent="1">
          <mxGeometry x="20" y="960" width="40" height="40" as="geometry" />
        </mxCell>
        <mxCell id="3_953Ben1oo5WWHwkarm-431" value="27" style="rounded=0;whiteSpace=wrap;html=1;fontSize=18;sketch=1;fontStyle=1;fillColor=#FFFFFF;" vertex="1" parent="1">
          <mxGeometry x="60" y="960" width="40" height="40" as="geometry" />
        </mxCell>
        <mxCell id="3_953Ben1oo5WWHwkarm-432" value="16" style="rounded=0;whiteSpace=wrap;html=1;fontSize=18;sketch=1;fontStyle=1;fillColor=#CCCCCC;" vertex="1" parent="1">
          <mxGeometry x="100" y="960" width="40" height="40" as="geometry" />
        </mxCell>
        <mxCell id="3_953Ben1oo5WWHwkarm-433" value="6" style="rounded=0;whiteSpace=wrap;html=1;fontSize=18;sketch=1;fontStyle=1" vertex="1" parent="1">
          <mxGeometry x="140" y="960" width="40" height="40" as="geometry" />
        </mxCell>
        <mxCell id="3_953Ben1oo5WWHwkarm-434" value="9" style="rounded=0;whiteSpace=wrap;html=1;fontSize=18;sketch=1;fontStyle=1" vertex="1" parent="1">
          <mxGeometry x="180" y="960" width="40" height="40" as="geometry" />
        </mxCell>
        <mxCell id="3_953Ben1oo5WWHwkarm-435" value="22" style="rounded=0;whiteSpace=wrap;html=1;fontSize=18;sketch=1;fontStyle=1" vertex="1" parent="1">
          <mxGeometry x="220" y="960" width="40" height="40" as="geometry" />
        </mxCell>
        <mxCell id="3_953Ben1oo5WWHwkarm-436" value="4" style="rounded=0;whiteSpace=wrap;html=1;fontSize=18;sketch=1;fontStyle=1" vertex="1" parent="1">
          <mxGeometry x="260" y="960" width="40" height="40" as="geometry" />
        </mxCell>
        <mxCell id="3_953Ben1oo5WWHwkarm-437" value="21" style="rounded=0;whiteSpace=wrap;html=1;fontSize=18;sketch=1;fontStyle=1" vertex="1" parent="1">
          <mxGeometry x="300" y="960" width="40" height="40" as="geometry" />
        </mxCell>
        <mxCell id="3_953Ben1oo5WWHwkarm-438" value="3" style="rounded=0;whiteSpace=wrap;html=1;fontSize=18;sketch=1;fontStyle=1;fillColor=#FFFFFF;" vertex="1" parent="1">
          <mxGeometry x="340" y="960" width="40" height="40" as="geometry" />
        </mxCell>
        <mxCell id="3_953Ben1oo5WWHwkarm-439" value="19" style="rounded=0;whiteSpace=wrap;html=1;fontSize=18;sketch=1;fontStyle=1" vertex="1" parent="1">
          <mxGeometry x="380" y="960" width="40" height="40" as="geometry" />
        </mxCell>
        <mxCell id="3_953Ben1oo5WWHwkarm-440" value="18" style="rounded=0;whiteSpace=wrap;html=1;fontSize=18;sketch=1;fontStyle=1" vertex="1" parent="1">
          <mxGeometry x="420" y="960" width="40" height="40" as="geometry" />
        </mxCell>
        <mxCell id="3_953Ben1oo5WWHwkarm-441" value="17" style="rounded=0;whiteSpace=wrap;html=1;fontSize=18;sketch=1;fontStyle=1" vertex="1" parent="1">
          <mxGeometry x="460" y="960" width="40" height="40" as="geometry" />
        </mxCell>
        <mxCell id="3_953Ben1oo5WWHwkarm-442" value="24" style="rounded=0;whiteSpace=wrap;html=1;fontSize=18;sketch=1;fontStyle=1" vertex="1" parent="1">
          <mxGeometry x="500" y="960" width="40" height="40" as="geometry" />
        </mxCell>
        <mxCell id="3_953Ben1oo5WWHwkarm-443" value="30" style="rounded=0;whiteSpace=wrap;html=1;fontSize=18;sketch=1;fontStyle=1" vertex="1" parent="1">
          <mxGeometry x="540" y="960" width="40" height="40" as="geometry" />
        </mxCell>
        <mxCell id="3_953Ben1oo5WWHwkarm-444" value="14" style="rounded=0;whiteSpace=wrap;html=1;fontSize=18;sketch=1;fontStyle=1" vertex="1" parent="1">
          <mxGeometry x="580" y="960" width="40" height="40" as="geometry" />
        </mxCell>
        <mxCell id="3_953Ben1oo5WWHwkarm-445" value="15" style="rounded=0;whiteSpace=wrap;html=1;fontSize=18;sketch=1;fontStyle=1" vertex="1" parent="1">
          <mxGeometry x="620" y="960" width="40" height="40" as="geometry" />
        </mxCell>
        <mxCell id="3_953Ben1oo5WWHwkarm-446" value="12" style="rounded=0;whiteSpace=wrap;html=1;fontSize=18;sketch=1;fontStyle=1" vertex="1" parent="1">
          <mxGeometry x="660" y="960" width="40" height="40" as="geometry" />
        </mxCell>
        <mxCell id="3_953Ben1oo5WWHwkarm-447" value="20" style="rounded=0;whiteSpace=wrap;html=1;fontSize=18;sketch=1;fontStyle=1" vertex="1" parent="1">
          <mxGeometry x="700" y="960" width="40" height="40" as="geometry" />
        </mxCell>
        <mxCell id="3_953Ben1oo5WWHwkarm-448" value="11" style="rounded=0;whiteSpace=wrap;html=1;fontSize=18;sketch=1;fontStyle=1" vertex="1" parent="1">
          <mxGeometry x="740" y="960" width="40" height="40" as="geometry" />
        </mxCell>
        <mxCell id="3_953Ben1oo5WWHwkarm-449" value="19" style="rounded=0;whiteSpace=wrap;html=1;fontSize=18;sketch=1;fontStyle=1" vertex="1" parent="1">
          <mxGeometry x="780" y="960" width="40" height="40" as="geometry" />
        </mxCell>
        <mxCell id="3_953Ben1oo5WWHwkarm-450" value="" style="group" vertex="1" connectable="0" parent="1">
          <mxGeometry x="80" y="1000" width="40" height="30" as="geometry" />
        </mxCell>
        <mxCell id="3_953Ben1oo5WWHwkarm-451" value="" style="endArrow=none;html=1;" edge="1" parent="3_953Ben1oo5WWHwkarm-450">
          <mxGeometry x="0.0983291175317964" width="7.125298371869321" height="50" as="geometry">
            <mxPoint x="40" y="30" as="sourcePoint" />
            <mxPoint x="0.09832911753181861" y="30" as="targetPoint" />
          </mxGeometry>
        </mxCell>
        <mxCell id="3_953Ben1oo5WWHwkarm-452" value="" style="endArrow=classic;html=1;strokeWidth=1;" edge="1" parent="3_953Ben1oo5WWHwkarm-450">
          <mxGeometry width="7.125298371869321" height="50" as="geometry">
            <mxPoint y="30" as="sourcePoint" />
            <mxPoint as="targetPoint" />
          </mxGeometry>
        </mxCell>
        <mxCell id="3_953Ben1oo5WWHwkarm-453" value="" style="endArrow=classic;html=1;strokeWidth=1;" edge="1" parent="3_953Ben1oo5WWHwkarm-450">
          <mxGeometry x="39.9515479710713" width="7.125298371869321" height="50" as="geometry">
            <mxPoint x="39.95154797107128" y="30" as="sourcePoint" />
            <mxPoint x="39.95154797107128" as="targetPoint" />
          </mxGeometry>
        </mxCell>
        <mxCell id="3_953Ben1oo5WWHwkarm-454" value="1" style="rounded=0;whiteSpace=wrap;html=1;fontSize=18;fontStyle=1;sketch=1;fontColor=#333333;fillColor=#CCCCCC;" vertex="1" parent="1">
          <mxGeometry x="20" y="1050" width="40" height="40" as="geometry" />
        </mxCell>
        <mxCell id="3_953Ben1oo5WWHwkarm-455" value="27" style="rounded=0;whiteSpace=wrap;html=1;fontSize=18;sketch=1;fontStyle=1;fillColor=#FFFFFF;" vertex="1" parent="1">
          <mxGeometry x="60" y="1050" width="40" height="40" as="geometry" />
        </mxCell>
        <mxCell id="3_953Ben1oo5WWHwkarm-456" value="16" style="rounded=0;whiteSpace=wrap;html=1;fontSize=18;sketch=1;fontStyle=1;fillColor=#FFFFFF;" vertex="1" parent="1">
          <mxGeometry x="100" y="1050" width="40" height="40" as="geometry" />
        </mxCell>
        <mxCell id="3_953Ben1oo5WWHwkarm-457" value="6" style="rounded=0;whiteSpace=wrap;html=1;fontSize=18;sketch=1;fontStyle=1;fillColor=#CCCCCC;" vertex="1" parent="1">
          <mxGeometry x="140" y="1050" width="40" height="40" as="geometry" />
        </mxCell>
        <mxCell id="3_953Ben1oo5WWHwkarm-458" value="9" style="rounded=0;whiteSpace=wrap;html=1;fontSize=18;sketch=1;fontStyle=1" vertex="1" parent="1">
          <mxGeometry x="180" y="1050" width="40" height="40" as="geometry" />
        </mxCell>
        <mxCell id="3_953Ben1oo5WWHwkarm-459" value="22" style="rounded=0;whiteSpace=wrap;html=1;fontSize=18;sketch=1;fontStyle=1" vertex="1" parent="1">
          <mxGeometry x="220" y="1050" width="40" height="40" as="geometry" />
        </mxCell>
        <mxCell id="3_953Ben1oo5WWHwkarm-460" value="4" style="rounded=0;whiteSpace=wrap;html=1;fontSize=18;sketch=1;fontStyle=1" vertex="1" parent="1">
          <mxGeometry x="260" y="1050" width="40" height="40" as="geometry" />
        </mxCell>
        <mxCell id="3_953Ben1oo5WWHwkarm-461" value="21" style="rounded=0;whiteSpace=wrap;html=1;fontSize=18;sketch=1;fontStyle=1" vertex="1" parent="1">
          <mxGeometry x="300" y="1050" width="40" height="40" as="geometry" />
        </mxCell>
        <mxCell id="3_953Ben1oo5WWHwkarm-462" value="3" style="rounded=0;whiteSpace=wrap;html=1;fontSize=18;sketch=1;fontStyle=1;fillColor=#FFFFFF;" vertex="1" parent="1">
          <mxGeometry x="340" y="1050" width="40" height="40" as="geometry" />
        </mxCell>
        <mxCell id="3_953Ben1oo5WWHwkarm-463" value="19" style="rounded=0;whiteSpace=wrap;html=1;fontSize=18;sketch=1;fontStyle=1" vertex="1" parent="1">
          <mxGeometry x="380" y="1050" width="40" height="40" as="geometry" />
        </mxCell>
        <mxCell id="3_953Ben1oo5WWHwkarm-464" value="18" style="rounded=0;whiteSpace=wrap;html=1;fontSize=18;sketch=1;fontStyle=1" vertex="1" parent="1">
          <mxGeometry x="420" y="1050" width="40" height="40" as="geometry" />
        </mxCell>
        <mxCell id="3_953Ben1oo5WWHwkarm-465" value="17" style="rounded=0;whiteSpace=wrap;html=1;fontSize=18;sketch=1;fontStyle=1" vertex="1" parent="1">
          <mxGeometry x="460" y="1050" width="40" height="40" as="geometry" />
        </mxCell>
        <mxCell id="3_953Ben1oo5WWHwkarm-466" value="24" style="rounded=0;whiteSpace=wrap;html=1;fontSize=18;sketch=1;fontStyle=1" vertex="1" parent="1">
          <mxGeometry x="500" y="1050" width="40" height="40" as="geometry" />
        </mxCell>
        <mxCell id="3_953Ben1oo5WWHwkarm-467" value="30" style="rounded=0;whiteSpace=wrap;html=1;fontSize=18;sketch=1;fontStyle=1" vertex="1" parent="1">
          <mxGeometry x="540" y="1050" width="40" height="40" as="geometry" />
        </mxCell>
        <mxCell id="3_953Ben1oo5WWHwkarm-468" value="14" style="rounded=0;whiteSpace=wrap;html=1;fontSize=18;sketch=1;fontStyle=1" vertex="1" parent="1">
          <mxGeometry x="580" y="1050" width="40" height="40" as="geometry" />
        </mxCell>
        <mxCell id="3_953Ben1oo5WWHwkarm-469" value="15" style="rounded=0;whiteSpace=wrap;html=1;fontSize=18;sketch=1;fontStyle=1" vertex="1" parent="1">
          <mxGeometry x="620" y="1050" width="40" height="40" as="geometry" />
        </mxCell>
        <mxCell id="3_953Ben1oo5WWHwkarm-470" value="12" style="rounded=0;whiteSpace=wrap;html=1;fontSize=18;sketch=1;fontStyle=1" vertex="1" parent="1">
          <mxGeometry x="660" y="1050" width="40" height="40" as="geometry" />
        </mxCell>
        <mxCell id="3_953Ben1oo5WWHwkarm-471" value="20" style="rounded=0;whiteSpace=wrap;html=1;fontSize=18;sketch=1;fontStyle=1" vertex="1" parent="1">
          <mxGeometry x="700" y="1050" width="40" height="40" as="geometry" />
        </mxCell>
        <mxCell id="3_953Ben1oo5WWHwkarm-472" value="11" style="rounded=0;whiteSpace=wrap;html=1;fontSize=18;sketch=1;fontStyle=1" vertex="1" parent="1">
          <mxGeometry x="740" y="1050" width="40" height="40" as="geometry" />
        </mxCell>
        <mxCell id="3_953Ben1oo5WWHwkarm-473" value="19" style="rounded=0;whiteSpace=wrap;html=1;fontSize=18;sketch=1;fontStyle=1" vertex="1" parent="1">
          <mxGeometry x="780" y="1050" width="40" height="40" as="geometry" />
        </mxCell>
        <mxCell id="3_953Ben1oo5WWHwkarm-474" value="" style="group" vertex="1" connectable="0" parent="1">
          <mxGeometry x="120" y="1090" width="40" height="30" as="geometry" />
        </mxCell>
        <mxCell id="3_953Ben1oo5WWHwkarm-475" value="" style="endArrow=none;html=1;" edge="1" parent="3_953Ben1oo5WWHwkarm-474">
          <mxGeometry x="0.0983291175317964" width="7.125298371869321" height="50" as="geometry">
            <mxPoint x="40" y="30" as="sourcePoint" />
            <mxPoint x="0.09832911753181861" y="30" as="targetPoint" />
          </mxGeometry>
        </mxCell>
        <mxCell id="3_953Ben1oo5WWHwkarm-476" value="" style="endArrow=classic;html=1;strokeWidth=1;" edge="1" parent="3_953Ben1oo5WWHwkarm-474">
          <mxGeometry width="7.125298371869321" height="50" as="geometry">
            <mxPoint y="30" as="sourcePoint" />
            <mxPoint as="targetPoint" />
          </mxGeometry>
        </mxCell>
        <mxCell id="3_953Ben1oo5WWHwkarm-477" value="" style="endArrow=classic;html=1;strokeWidth=1;" edge="1" parent="3_953Ben1oo5WWHwkarm-474">
          <mxGeometry x="39.9515479710713" width="7.125298371869321" height="50" as="geometry">
            <mxPoint x="39.95154797107128" y="30" as="sourcePoint" />
            <mxPoint x="39.95154797107128" as="targetPoint" />
          </mxGeometry>
        </mxCell>
        <mxCell id="3_953Ben1oo5WWHwkarm-503" value="1" style="rounded=0;whiteSpace=wrap;html=1;fontSize=18;fontStyle=1;sketch=1;fontColor=#333333;fillColor=#CCCCCC;" vertex="1" parent="1">
          <mxGeometry x="20" y="1200" width="40" height="40" as="geometry" />
        </mxCell>
        <mxCell id="3_953Ben1oo5WWHwkarm-504" value="27" style="rounded=0;whiteSpace=wrap;html=1;fontSize=18;sketch=1;fontStyle=1;fillColor=#FFFFFF;" vertex="1" parent="1">
          <mxGeometry x="60" y="1200" width="40" height="40" as="geometry" />
        </mxCell>
        <mxCell id="3_953Ben1oo5WWHwkarm-505" value="16" style="rounded=0;whiteSpace=wrap;html=1;fontSize=18;sketch=1;fontStyle=1;fillColor=#FFFFFF;" vertex="1" parent="1">
          <mxGeometry x="100" y="1200" width="40" height="40" as="geometry" />
        </mxCell>
        <mxCell id="3_953Ben1oo5WWHwkarm-506" value="6" style="rounded=0;whiteSpace=wrap;html=1;fontSize=18;sketch=1;fontStyle=1;fillColor=#FFFFFF;" vertex="1" parent="1">
          <mxGeometry x="140" y="1200" width="40" height="40" as="geometry" />
        </mxCell>
        <mxCell id="3_953Ben1oo5WWHwkarm-507" value="9" style="rounded=0;whiteSpace=wrap;html=1;fontSize=18;sketch=1;fontStyle=1" vertex="1" parent="1">
          <mxGeometry x="180" y="1200" width="40" height="40" as="geometry" />
        </mxCell>
        <mxCell id="3_953Ben1oo5WWHwkarm-508" value="22" style="rounded=0;whiteSpace=wrap;html=1;fontSize=18;sketch=1;fontStyle=1" vertex="1" parent="1">
          <mxGeometry x="220" y="1200" width="40" height="40" as="geometry" />
        </mxCell>
        <mxCell id="3_953Ben1oo5WWHwkarm-509" value="4" style="rounded=0;whiteSpace=wrap;html=1;fontSize=18;sketch=1;fontStyle=1;fillColor=#CCCCCC;" vertex="1" parent="1">
          <mxGeometry x="260" y="1200" width="40" height="40" as="geometry" />
        </mxCell>
        <mxCell id="3_953Ben1oo5WWHwkarm-510" value="21" style="rounded=0;whiteSpace=wrap;html=1;fontSize=18;sketch=1;fontStyle=1" vertex="1" parent="1">
          <mxGeometry x="300" y="1200" width="40" height="40" as="geometry" />
        </mxCell>
        <mxCell id="3_953Ben1oo5WWHwkarm-511" value="3" style="rounded=0;whiteSpace=wrap;html=1;fontSize=18;sketch=1;fontStyle=1;fillColor=#FFFFFF;" vertex="1" parent="1">
          <mxGeometry x="340" y="1200" width="40" height="40" as="geometry" />
        </mxCell>
        <mxCell id="3_953Ben1oo5WWHwkarm-512" value="19" style="rounded=0;whiteSpace=wrap;html=1;fontSize=18;sketch=1;fontStyle=1" vertex="1" parent="1">
          <mxGeometry x="380" y="1200" width="40" height="40" as="geometry" />
        </mxCell>
        <mxCell id="3_953Ben1oo5WWHwkarm-513" value="18" style="rounded=0;whiteSpace=wrap;html=1;fontSize=18;sketch=1;fontStyle=1" vertex="1" parent="1">
          <mxGeometry x="420" y="1200" width="40" height="40" as="geometry" />
        </mxCell>
        <mxCell id="3_953Ben1oo5WWHwkarm-514" value="17" style="rounded=0;whiteSpace=wrap;html=1;fontSize=18;sketch=1;fontStyle=1" vertex="1" parent="1">
          <mxGeometry x="460" y="1200" width="40" height="40" as="geometry" />
        </mxCell>
        <mxCell id="3_953Ben1oo5WWHwkarm-515" value="24" style="rounded=0;whiteSpace=wrap;html=1;fontSize=18;sketch=1;fontStyle=1" vertex="1" parent="1">
          <mxGeometry x="500" y="1200" width="40" height="40" as="geometry" />
        </mxCell>
        <mxCell id="3_953Ben1oo5WWHwkarm-516" value="30" style="rounded=0;whiteSpace=wrap;html=1;fontSize=18;sketch=1;fontStyle=1" vertex="1" parent="1">
          <mxGeometry x="540" y="1200" width="40" height="40" as="geometry" />
        </mxCell>
        <mxCell id="3_953Ben1oo5WWHwkarm-517" value="14" style="rounded=0;whiteSpace=wrap;html=1;fontSize=18;sketch=1;fontStyle=1" vertex="1" parent="1">
          <mxGeometry x="580" y="1200" width="40" height="40" as="geometry" />
        </mxCell>
        <mxCell id="3_953Ben1oo5WWHwkarm-518" value="15" style="rounded=0;whiteSpace=wrap;html=1;fontSize=18;sketch=1;fontStyle=1" vertex="1" parent="1">
          <mxGeometry x="620" y="1200" width="40" height="40" as="geometry" />
        </mxCell>
        <mxCell id="3_953Ben1oo5WWHwkarm-519" value="12" style="rounded=0;whiteSpace=wrap;html=1;fontSize=18;sketch=1;fontStyle=1" vertex="1" parent="1">
          <mxGeometry x="660" y="1200" width="40" height="40" as="geometry" />
        </mxCell>
        <mxCell id="3_953Ben1oo5WWHwkarm-520" value="20" style="rounded=0;whiteSpace=wrap;html=1;fontSize=18;sketch=1;fontStyle=1" vertex="1" parent="1">
          <mxGeometry x="700" y="1200" width="40" height="40" as="geometry" />
        </mxCell>
        <mxCell id="3_953Ben1oo5WWHwkarm-521" value="11" style="rounded=0;whiteSpace=wrap;html=1;fontSize=18;sketch=1;fontStyle=1" vertex="1" parent="1">
          <mxGeometry x="740" y="1200" width="40" height="40" as="geometry" />
        </mxCell>
        <mxCell id="3_953Ben1oo5WWHwkarm-522" value="19" style="rounded=0;whiteSpace=wrap;html=1;fontSize=18;sketch=1;fontStyle=1" vertex="1" parent="1">
          <mxGeometry x="780" y="1200" width="40" height="40" as="geometry" />
        </mxCell>
        <mxCell id="3_953Ben1oo5WWHwkarm-523" value="" style="group" vertex="1" connectable="0" parent="1">
          <mxGeometry x="160" y="1240" width="120" height="30" as="geometry" />
        </mxCell>
        <mxCell id="3_953Ben1oo5WWHwkarm-524" value="" style="endArrow=none;html=1;" edge="1" parent="3_953Ben1oo5WWHwkarm-523">
          <mxGeometry x="0.2949873525953892" width="21.375895115607964" height="50" as="geometry">
            <mxPoint x="120" y="30" as="sourcePoint" />
            <mxPoint x="0.29498735259545583" y="30" as="targetPoint" />
          </mxGeometry>
        </mxCell>
        <mxCell id="3_953Ben1oo5WWHwkarm-525" value="" style="endArrow=classic;html=1;strokeWidth=1;" edge="1" parent="3_953Ben1oo5WWHwkarm-523">
          <mxGeometry width="21.375895115607964" height="50" as="geometry">
            <mxPoint y="30" as="sourcePoint" />
            <mxPoint as="targetPoint" />
          </mxGeometry>
        </mxCell>
        <mxCell id="3_953Ben1oo5WWHwkarm-526" value="" style="endArrow=classic;html=1;strokeWidth=1;" edge="1" parent="3_953Ben1oo5WWHwkarm-523">
          <mxGeometry x="119.85464391321389" width="21.375895115607964" height="50" as="geometry">
            <mxPoint x="119.85464391321383" y="30" as="sourcePoint" />
            <mxPoint x="119.85464391321383" as="targetPoint" />
          </mxGeometry>
        </mxCell>
        <mxCell id="3_953Ben1oo5WWHwkarm-552" value="" style="endArrow=none;dashed=1;html=1;dashPattern=1 3;strokeWidth=6;fontSize=16;" edge="1" parent="1">
          <mxGeometry width="50" height="50" relative="1" as="geometry">
            <mxPoint x="370" y="1160" as="sourcePoint" />
            <mxPoint x="430" y="1160" as="targetPoint" />
          </mxGeometry>
        </mxCell>
        <mxCell id="3_953Ben1oo5WWHwkarm-578" value="&lt;b style=&quot;font-size: 16px&quot;&gt;Iterasi 2&lt;/b&gt;" style="rounded=0;whiteSpace=wrap;html=1;sketch=1;strokeColor=#000000;fontSize=16;glass=0;shadow=1;fillColor=#FFFFFF;" vertex="1" parent="1">
          <mxGeometry x="20" y="820" width="90" height="30" as="geometry" />
        </mxCell>
        <mxCell id="3_953Ben1oo5WWHwkarm-579" value="1" style="rounded=0;whiteSpace=wrap;html=1;fontSize=18;fontStyle=1;sketch=1;fontColor=#333333;fillColor=#CCCCCC;" vertex="1" parent="1">
          <mxGeometry x="20" y="1350" width="40" height="40" as="geometry" />
        </mxCell>
        <mxCell id="3_953Ben1oo5WWHwkarm-580" value="27" style="rounded=0;whiteSpace=wrap;html=1;fontSize=18;sketch=1;fontStyle=1;fillColor=#FFFFFF;" vertex="1" parent="1">
          <mxGeometry x="60" y="1350" width="40" height="40" as="geometry" />
        </mxCell>
        <mxCell id="3_953Ben1oo5WWHwkarm-581" value="16" style="rounded=0;whiteSpace=wrap;html=1;fontSize=18;sketch=1;fontStyle=1;fillColor=#FFFFFF;" vertex="1" parent="1">
          <mxGeometry x="100" y="1350" width="40" height="40" as="geometry" />
        </mxCell>
        <mxCell id="3_953Ben1oo5WWHwkarm-582" value="6" style="rounded=0;whiteSpace=wrap;html=1;fontSize=18;sketch=1;fontStyle=1;fillColor=#FFFFFF;" vertex="1" parent="1">
          <mxGeometry x="140" y="1350" width="40" height="40" as="geometry" />
        </mxCell>
        <mxCell id="3_953Ben1oo5WWHwkarm-583" value="9" style="rounded=0;whiteSpace=wrap;html=1;fontSize=18;sketch=1;fontStyle=1" vertex="1" parent="1">
          <mxGeometry x="180" y="1350" width="40" height="40" as="geometry" />
        </mxCell>
        <mxCell id="3_953Ben1oo5WWHwkarm-584" value="22" style="rounded=0;whiteSpace=wrap;html=1;fontSize=18;sketch=1;fontStyle=1" vertex="1" parent="1">
          <mxGeometry x="220" y="1350" width="40" height="40" as="geometry" />
        </mxCell>
        <mxCell id="3_953Ben1oo5WWHwkarm-585" value="4" style="rounded=0;whiteSpace=wrap;html=1;fontSize=18;sketch=1;fontStyle=1;fillColor=#FFFFFF;" vertex="1" parent="1">
          <mxGeometry x="260" y="1350" width="40" height="40" as="geometry" />
        </mxCell>
        <mxCell id="3_953Ben1oo5WWHwkarm-586" value="21" style="rounded=0;whiteSpace=wrap;html=1;fontSize=18;sketch=1;fontStyle=1" vertex="1" parent="1">
          <mxGeometry x="300" y="1350" width="40" height="40" as="geometry" />
        </mxCell>
        <mxCell id="3_953Ben1oo5WWHwkarm-587" value="3" style="rounded=0;whiteSpace=wrap;html=1;fontSize=18;sketch=1;fontStyle=1;fillColor=#CCCCCC;" vertex="1" parent="1">
          <mxGeometry x="340" y="1350" width="40" height="40" as="geometry" />
        </mxCell>
        <mxCell id="3_953Ben1oo5WWHwkarm-588" value="19" style="rounded=0;whiteSpace=wrap;html=1;fontSize=18;sketch=1;fontStyle=1" vertex="1" parent="1">
          <mxGeometry x="380" y="1350" width="40" height="40" as="geometry" />
        </mxCell>
        <mxCell id="3_953Ben1oo5WWHwkarm-589" value="18" style="rounded=0;whiteSpace=wrap;html=1;fontSize=18;sketch=1;fontStyle=1" vertex="1" parent="1">
          <mxGeometry x="420" y="1350" width="40" height="40" as="geometry" />
        </mxCell>
        <mxCell id="3_953Ben1oo5WWHwkarm-590" value="17" style="rounded=0;whiteSpace=wrap;html=1;fontSize=18;sketch=1;fontStyle=1" vertex="1" parent="1">
          <mxGeometry x="460" y="1350" width="40" height="40" as="geometry" />
        </mxCell>
        <mxCell id="3_953Ben1oo5WWHwkarm-591" value="24" style="rounded=0;whiteSpace=wrap;html=1;fontSize=18;sketch=1;fontStyle=1" vertex="1" parent="1">
          <mxGeometry x="500" y="1350" width="40" height="40" as="geometry" />
        </mxCell>
        <mxCell id="3_953Ben1oo5WWHwkarm-592" value="30" style="rounded=0;whiteSpace=wrap;html=1;fontSize=18;sketch=1;fontStyle=1" vertex="1" parent="1">
          <mxGeometry x="540" y="1350" width="40" height="40" as="geometry" />
        </mxCell>
        <mxCell id="3_953Ben1oo5WWHwkarm-593" value="14" style="rounded=0;whiteSpace=wrap;html=1;fontSize=18;sketch=1;fontStyle=1" vertex="1" parent="1">
          <mxGeometry x="580" y="1350" width="40" height="40" as="geometry" />
        </mxCell>
        <mxCell id="3_953Ben1oo5WWHwkarm-594" value="15" style="rounded=0;whiteSpace=wrap;html=1;fontSize=18;sketch=1;fontStyle=1" vertex="1" parent="1">
          <mxGeometry x="620" y="1350" width="40" height="40" as="geometry" />
        </mxCell>
        <mxCell id="3_953Ben1oo5WWHwkarm-595" value="12" style="rounded=0;whiteSpace=wrap;html=1;fontSize=18;sketch=1;fontStyle=1" vertex="1" parent="1">
          <mxGeometry x="660" y="1350" width="40" height="40" as="geometry" />
        </mxCell>
        <mxCell id="3_953Ben1oo5WWHwkarm-596" value="20" style="rounded=0;whiteSpace=wrap;html=1;fontSize=18;sketch=1;fontStyle=1" vertex="1" parent="1">
          <mxGeometry x="700" y="1350" width="40" height="40" as="geometry" />
        </mxCell>
        <mxCell id="3_953Ben1oo5WWHwkarm-597" value="11" style="rounded=0;whiteSpace=wrap;html=1;fontSize=18;sketch=1;fontStyle=1" vertex="1" parent="1">
          <mxGeometry x="740" y="1350" width="40" height="40" as="geometry" />
        </mxCell>
        <mxCell id="3_953Ben1oo5WWHwkarm-598" value="19" style="rounded=0;whiteSpace=wrap;html=1;fontSize=18;sketch=1;fontStyle=1" vertex="1" parent="1">
          <mxGeometry x="780" y="1350" width="40" height="40" as="geometry" />
        </mxCell>
        <mxCell id="3_953Ben1oo5WWHwkarm-599" value="" style="group" vertex="1" connectable="0" parent="1">
          <mxGeometry x="280" y="1390" width="80" height="30" as="geometry" />
        </mxCell>
        <mxCell id="3_953Ben1oo5WWHwkarm-600" value="" style="endArrow=none;html=1;" edge="1" parent="3_953Ben1oo5WWHwkarm-599">
          <mxGeometry x="0.1966582350635928" width="14.250596743738642" height="50" as="geometry">
            <mxPoint x="80" y="30" as="sourcePoint" />
            <mxPoint x="0.19665823506363722" y="30" as="targetPoint" />
          </mxGeometry>
        </mxCell>
        <mxCell id="3_953Ben1oo5WWHwkarm-601" value="" style="endArrow=classic;html=1;strokeWidth=1;" edge="1" parent="3_953Ben1oo5WWHwkarm-599">
          <mxGeometry width="14.250596743738642" height="50" as="geometry">
            <mxPoint y="30" as="sourcePoint" />
            <mxPoint as="targetPoint" />
          </mxGeometry>
        </mxCell>
        <mxCell id="3_953Ben1oo5WWHwkarm-602" value="" style="endArrow=classic;html=1;strokeWidth=1;" edge="1" parent="3_953Ben1oo5WWHwkarm-599">
          <mxGeometry x="79.90309594214258" width="14.250596743738642" height="50" as="geometry">
            <mxPoint x="79.90309594214256" y="30" as="sourcePoint" />
            <mxPoint x="79.90309594214256" as="targetPoint" />
          </mxGeometry>
        </mxCell>
        <mxCell id="3_953Ben1oo5WWHwkarm-603" value="" style="endArrow=none;dashed=1;html=1;dashPattern=1 3;strokeWidth=6;fontSize=16;" edge="1" parent="1">
          <mxGeometry width="50" height="50" relative="1" as="geometry">
            <mxPoint x="370" y="1310" as="sourcePoint" />
            <mxPoint x="430" y="1310" as="targetPoint" />
          </mxGeometry>
        </mxCell>
        <mxCell id="3_953Ben1oo5WWHwkarm-604" value="1" style="rounded=0;whiteSpace=wrap;html=1;fontSize=18;fontStyle=1;sketch=1;fontColor=#333333;fillColor=#CCCCCC;" vertex="1" parent="1">
          <mxGeometry x="20" y="1500" width="40" height="40" as="geometry" />
        </mxCell>
        <mxCell id="3_953Ben1oo5WWHwkarm-605" value="27" style="rounded=0;whiteSpace=wrap;html=1;fontSize=18;sketch=1;fontStyle=1;fillColor=#FFFFFF;" vertex="1" parent="1">
          <mxGeometry x="60" y="1500" width="40" height="40" as="geometry" />
        </mxCell>
        <mxCell id="3_953Ben1oo5WWHwkarm-606" value="16" style="rounded=0;whiteSpace=wrap;html=1;fontSize=18;sketch=1;fontStyle=1;fillColor=#FFFFFF;" vertex="1" parent="1">
          <mxGeometry x="100" y="1500" width="40" height="40" as="geometry" />
        </mxCell>
        <mxCell id="3_953Ben1oo5WWHwkarm-607" value="6" style="rounded=0;whiteSpace=wrap;html=1;fontSize=18;sketch=1;fontStyle=1;fillColor=#FFFFFF;" vertex="1" parent="1">
          <mxGeometry x="140" y="1500" width="40" height="40" as="geometry" />
        </mxCell>
        <mxCell id="3_953Ben1oo5WWHwkarm-608" value="9" style="rounded=0;whiteSpace=wrap;html=1;fontSize=18;sketch=1;fontStyle=1" vertex="1" parent="1">
          <mxGeometry x="180" y="1500" width="40" height="40" as="geometry" />
        </mxCell>
        <mxCell id="3_953Ben1oo5WWHwkarm-609" value="22" style="rounded=0;whiteSpace=wrap;html=1;fontSize=18;sketch=1;fontStyle=1" vertex="1" parent="1">
          <mxGeometry x="220" y="1500" width="40" height="40" as="geometry" />
        </mxCell>
        <mxCell id="3_953Ben1oo5WWHwkarm-610" value="4" style="rounded=0;whiteSpace=wrap;html=1;fontSize=18;sketch=1;fontStyle=1;fillColor=#FFFFFF;" vertex="1" parent="1">
          <mxGeometry x="260" y="1500" width="40" height="40" as="geometry" />
        </mxCell>
        <mxCell id="3_953Ben1oo5WWHwkarm-611" value="21" style="rounded=0;whiteSpace=wrap;html=1;fontSize=18;sketch=1;fontStyle=1" vertex="1" parent="1">
          <mxGeometry x="300" y="1500" width="40" height="40" as="geometry" />
        </mxCell>
        <mxCell id="3_953Ben1oo5WWHwkarm-612" value="3" style="rounded=0;whiteSpace=wrap;html=1;fontSize=18;sketch=1;fontStyle=1;fillColor=#CCCCCC;" vertex="1" parent="1">
          <mxGeometry x="340" y="1500" width="40" height="40" as="geometry" />
        </mxCell>
        <mxCell id="3_953Ben1oo5WWHwkarm-613" value="19" style="rounded=0;whiteSpace=wrap;html=1;fontSize=18;sketch=1;fontStyle=1" vertex="1" parent="1">
          <mxGeometry x="380" y="1500" width="40" height="40" as="geometry" />
        </mxCell>
        <mxCell id="3_953Ben1oo5WWHwkarm-614" value="18" style="rounded=0;whiteSpace=wrap;html=1;fontSize=18;sketch=1;fontStyle=1" vertex="1" parent="1">
          <mxGeometry x="420" y="1500" width="40" height="40" as="geometry" />
        </mxCell>
        <mxCell id="3_953Ben1oo5WWHwkarm-615" value="17" style="rounded=0;whiteSpace=wrap;html=1;fontSize=18;sketch=1;fontStyle=1" vertex="1" parent="1">
          <mxGeometry x="460" y="1500" width="40" height="40" as="geometry" />
        </mxCell>
        <mxCell id="3_953Ben1oo5WWHwkarm-616" value="24" style="rounded=0;whiteSpace=wrap;html=1;fontSize=18;sketch=1;fontStyle=1" vertex="1" parent="1">
          <mxGeometry x="500" y="1500" width="40" height="40" as="geometry" />
        </mxCell>
        <mxCell id="3_953Ben1oo5WWHwkarm-617" value="30" style="rounded=0;whiteSpace=wrap;html=1;fontSize=18;sketch=1;fontStyle=1" vertex="1" parent="1">
          <mxGeometry x="540" y="1500" width="40" height="40" as="geometry" />
        </mxCell>
        <mxCell id="3_953Ben1oo5WWHwkarm-618" value="14" style="rounded=0;whiteSpace=wrap;html=1;fontSize=18;sketch=1;fontStyle=1" vertex="1" parent="1">
          <mxGeometry x="580" y="1500" width="40" height="40" as="geometry" />
        </mxCell>
        <mxCell id="3_953Ben1oo5WWHwkarm-619" value="15" style="rounded=0;whiteSpace=wrap;html=1;fontSize=18;sketch=1;fontStyle=1" vertex="1" parent="1">
          <mxGeometry x="620" y="1500" width="40" height="40" as="geometry" />
        </mxCell>
        <mxCell id="3_953Ben1oo5WWHwkarm-620" value="12" style="rounded=0;whiteSpace=wrap;html=1;fontSize=18;sketch=1;fontStyle=1" vertex="1" parent="1">
          <mxGeometry x="660" y="1500" width="40" height="40" as="geometry" />
        </mxCell>
        <mxCell id="3_953Ben1oo5WWHwkarm-621" value="20" style="rounded=0;whiteSpace=wrap;html=1;fontSize=18;sketch=1;fontStyle=1" vertex="1" parent="1">
          <mxGeometry x="700" y="1500" width="40" height="40" as="geometry" />
        </mxCell>
        <mxCell id="3_953Ben1oo5WWHwkarm-622" value="11" style="rounded=0;whiteSpace=wrap;html=1;fontSize=18;sketch=1;fontStyle=1" vertex="1" parent="1">
          <mxGeometry x="740" y="1500" width="40" height="40" as="geometry" />
        </mxCell>
        <mxCell id="3_953Ben1oo5WWHwkarm-623" value="19" style="rounded=0;whiteSpace=wrap;html=1;fontSize=18;sketch=1;fontStyle=1" vertex="1" parent="1">
          <mxGeometry x="780" y="1500" width="40" height="40" as="geometry" />
        </mxCell>
        <mxCell id="3_953Ben1oo5WWHwkarm-624" value="" style="group" vertex="1" connectable="0" parent="1">
          <mxGeometry x="360" y="1540" width="440" height="30" as="geometry" />
        </mxCell>
        <mxCell id="3_953Ben1oo5WWHwkarm-625" value="" style="endArrow=none;html=1;" edge="1" parent="3_953Ben1oo5WWHwkarm-624">
          <mxGeometry x="1.0816202928497605" width="78.37828209056254" height="50" as="geometry">
            <mxPoint x="440" y="30" as="sourcePoint" />
            <mxPoint x="1.0816202928500047" y="30" as="targetPoint" />
          </mxGeometry>
        </mxCell>
        <mxCell id="3_953Ben1oo5WWHwkarm-626" value="" style="endArrow=classic;html=1;strokeWidth=1;" edge="1" parent="3_953Ben1oo5WWHwkarm-624">
          <mxGeometry width="78.37828209056254" height="50" as="geometry">
            <mxPoint y="30" as="sourcePoint" />
            <mxPoint as="targetPoint" />
          </mxGeometry>
        </mxCell>
        <mxCell id="3_953Ben1oo5WWHwkarm-627" value="" style="endArrow=classic;html=1;strokeWidth=1;" edge="1" parent="3_953Ben1oo5WWHwkarm-624">
          <mxGeometry x="439.4670276817842" width="78.37828209056254" height="50" as="geometry">
            <mxPoint x="439.4670276817841" y="30" as="sourcePoint" />
            <mxPoint x="439.4670276817841" as="targetPoint" />
          </mxGeometry>
        </mxCell>
        <mxCell id="3_953Ben1oo5WWHwkarm-628" value="" style="endArrow=none;dashed=1;html=1;dashPattern=1 3;strokeWidth=6;fontSize=16;" edge="1" parent="1">
          <mxGeometry width="50" height="50" relative="1" as="geometry">
            <mxPoint x="370" y="1460" as="sourcePoint" />
            <mxPoint x="430" y="1460" as="targetPoint" />
          </mxGeometry>
        </mxCell>
        <mxCell id="3_953Ben1oo5WWHwkarm-629" value="1" style="rounded=0;whiteSpace=wrap;html=1;fontSize=18;fontStyle=1;sketch=1;fontColor=#333333;fillColor=#CCCCCC;" vertex="1" parent="1">
          <mxGeometry x="20" y="1590" width="40" height="40" as="geometry" />
        </mxCell>
        <mxCell id="3_953Ben1oo5WWHwkarm-630" value="27" style="rounded=0;whiteSpace=wrap;html=1;fontSize=18;sketch=1;fontStyle=1;fillColor=#FFFFFF;" vertex="1" parent="1">
          <mxGeometry x="60" y="1590" width="40" height="40" as="geometry" />
        </mxCell>
        <mxCell id="3_953Ben1oo5WWHwkarm-631" value="16" style="rounded=0;whiteSpace=wrap;html=1;fontSize=18;sketch=1;fontStyle=1;fillColor=#FFFFFF;" vertex="1" parent="1">
          <mxGeometry x="100" y="1590" width="40" height="40" as="geometry" />
        </mxCell>
        <mxCell id="3_953Ben1oo5WWHwkarm-632" value="6" style="rounded=0;whiteSpace=wrap;html=1;fontSize=18;sketch=1;fontStyle=1;fillColor=#FFFFFF;" vertex="1" parent="1">
          <mxGeometry x="140" y="1590" width="40" height="40" as="geometry" />
        </mxCell>
        <mxCell id="3_953Ben1oo5WWHwkarm-633" value="9" style="rounded=0;whiteSpace=wrap;html=1;fontSize=18;sketch=1;fontStyle=1" vertex="1" parent="1">
          <mxGeometry x="180" y="1590" width="40" height="40" as="geometry" />
        </mxCell>
        <mxCell id="3_953Ben1oo5WWHwkarm-634" value="22" style="rounded=0;whiteSpace=wrap;html=1;fontSize=18;sketch=1;fontStyle=1" vertex="1" parent="1">
          <mxGeometry x="220" y="1590" width="40" height="40" as="geometry" />
        </mxCell>
        <mxCell id="3_953Ben1oo5WWHwkarm-635" value="4" style="rounded=0;whiteSpace=wrap;html=1;fontSize=18;sketch=1;fontStyle=1;fillColor=#FFFFFF;" vertex="1" parent="1">
          <mxGeometry x="260" y="1590" width="40" height="40" as="geometry" />
        </mxCell>
        <mxCell id="3_953Ben1oo5WWHwkarm-636" value="21" style="rounded=0;whiteSpace=wrap;html=1;fontSize=18;sketch=1;fontStyle=1" vertex="1" parent="1">
          <mxGeometry x="300" y="1590" width="40" height="40" as="geometry" />
        </mxCell>
        <mxCell id="3_953Ben1oo5WWHwkarm-637" value="3" style="rounded=0;whiteSpace=wrap;html=1;fontSize=18;sketch=1;fontStyle=1;fillColor=#CCCCCC;" vertex="1" parent="1">
          <mxGeometry x="340" y="1590" width="40" height="40" as="geometry" />
        </mxCell>
        <mxCell id="3_953Ben1oo5WWHwkarm-638" value="19" style="rounded=0;whiteSpace=wrap;html=1;fontSize=18;sketch=1;fontStyle=1" vertex="1" parent="1">
          <mxGeometry x="380" y="1590" width="40" height="40" as="geometry" />
        </mxCell>
        <mxCell id="3_953Ben1oo5WWHwkarm-639" value="18" style="rounded=0;whiteSpace=wrap;html=1;fontSize=18;sketch=1;fontStyle=1" vertex="1" parent="1">
          <mxGeometry x="420" y="1590" width="40" height="40" as="geometry" />
        </mxCell>
        <mxCell id="3_953Ben1oo5WWHwkarm-640" value="17" style="rounded=0;whiteSpace=wrap;html=1;fontSize=18;sketch=1;fontStyle=1" vertex="1" parent="1">
          <mxGeometry x="460" y="1590" width="40" height="40" as="geometry" />
        </mxCell>
        <mxCell id="3_953Ben1oo5WWHwkarm-641" value="24" style="rounded=0;whiteSpace=wrap;html=1;fontSize=18;sketch=1;fontStyle=1" vertex="1" parent="1">
          <mxGeometry x="500" y="1590" width="40" height="40" as="geometry" />
        </mxCell>
        <mxCell id="3_953Ben1oo5WWHwkarm-642" value="30" style="rounded=0;whiteSpace=wrap;html=1;fontSize=18;sketch=1;fontStyle=1" vertex="1" parent="1">
          <mxGeometry x="540" y="1590" width="40" height="40" as="geometry" />
        </mxCell>
        <mxCell id="3_953Ben1oo5WWHwkarm-643" value="14" style="rounded=0;whiteSpace=wrap;html=1;fontSize=18;sketch=1;fontStyle=1" vertex="1" parent="1">
          <mxGeometry x="580" y="1590" width="40" height="40" as="geometry" />
        </mxCell>
        <mxCell id="3_953Ben1oo5WWHwkarm-644" value="15" style="rounded=0;whiteSpace=wrap;html=1;fontSize=18;sketch=1;fontStyle=1" vertex="1" parent="1">
          <mxGeometry x="620" y="1590" width="40" height="40" as="geometry" />
        </mxCell>
        <mxCell id="3_953Ben1oo5WWHwkarm-645" value="12" style="rounded=0;whiteSpace=wrap;html=1;fontSize=18;sketch=1;fontStyle=1" vertex="1" parent="1">
          <mxGeometry x="660" y="1590" width="40" height="40" as="geometry" />
        </mxCell>
        <mxCell id="3_953Ben1oo5WWHwkarm-646" value="20" style="rounded=0;whiteSpace=wrap;html=1;fontSize=18;sketch=1;fontStyle=1" vertex="1" parent="1">
          <mxGeometry x="700" y="1590" width="40" height="40" as="geometry" />
        </mxCell>
        <mxCell id="3_953Ben1oo5WWHwkarm-647" value="11" style="rounded=0;whiteSpace=wrap;html=1;fontSize=18;sketch=1;fontStyle=1" vertex="1" parent="1">
          <mxGeometry x="740" y="1590" width="40" height="40" as="geometry" />
        </mxCell>
        <mxCell id="3_953Ben1oo5WWHwkarm-648" value="19" style="rounded=0;whiteSpace=wrap;html=1;fontSize=18;sketch=1;fontStyle=1" vertex="1" parent="1">
          <mxGeometry x="780" y="1590" width="40" height="40" as="geometry" />
        </mxCell>
        <mxCell id="3_953Ben1oo5WWHwkarm-650" value="" style="endArrow=none;html=1;" edge="1" parent="1">
          <mxGeometry x="40.78663294025437" y="1630" width="57.002386974954575" height="50" as="geometry">
            <mxPoint x="360" y="1660" as="sourcePoint" />
            <mxPoint x="80" y="1660" as="targetPoint" />
          </mxGeometry>
        </mxCell>
        <mxCell id="3_953Ben1oo5WWHwkarm-654" value="&amp;nbsp;Swapping&amp;nbsp;" style="edgeLabel;html=1;align=center;verticalAlign=middle;resizable=0;points=[];fontSize=16;fontStyle=1" vertex="1" connectable="0" parent="3_953Ben1oo5WWHwkarm-650">
          <mxGeometry relative="1" as="geometry">
            <mxPoint x="10" y="2" as="offset" />
          </mxGeometry>
        </mxCell>
        <mxCell id="3_953Ben1oo5WWHwkarm-651" value="" style="endArrow=classic;html=1;strokeWidth=1;" edge="1" parent="1">
          <mxGeometry x="78.82" y="1630" width="57.002386974954575" height="50" as="geometry">
            <mxPoint x="78.82" y="1660" as="sourcePoint" />
            <mxPoint x="78.82" y="1630" as="targetPoint" />
          </mxGeometry>
        </mxCell>
        <mxCell id="3_953Ben1oo5WWHwkarm-652" value="" style="endArrow=classic;html=1;strokeWidth=1;" edge="1" parent="1">
          <mxGeometry x="359.61238376857034" y="1630" width="57.002386974954575" height="50" as="geometry">
            <mxPoint x="359.6123837685703" y="1660" as="sourcePoint" />
            <mxPoint x="359.6123837685703" y="1630" as="targetPoint" />
          </mxGeometry>
        </mxCell>
        <mxCell id="3_953Ben1oo5WWHwkarm-655" value="1" style="rounded=0;whiteSpace=wrap;html=1;fontSize=18;fontStyle=1;sketch=1;fontColor=#333333;fillColor=#CCCCCC;" vertex="1" parent="1">
          <mxGeometry x="20" y="1770" width="40" height="40" as="geometry" />
        </mxCell>
        <mxCell id="3_953Ben1oo5WWHwkarm-656" value="3" style="rounded=0;whiteSpace=wrap;html=1;fontSize=18;sketch=1;fontStyle=1;fillColor=#CCCCCC;" vertex="1" parent="1">
          <mxGeometry x="60" y="1770" width="40" height="40" as="geometry" />
        </mxCell>
        <mxCell id="3_953Ben1oo5WWHwkarm-657" value="16" style="rounded=0;whiteSpace=wrap;html=1;fontSize=18;sketch=1;fontStyle=1;fillColor=#CCCCCC;" vertex="1" parent="1">
          <mxGeometry x="100" y="1770" width="40" height="40" as="geometry" />
        </mxCell>
        <mxCell id="3_953Ben1oo5WWHwkarm-658" value="6" style="rounded=0;whiteSpace=wrap;html=1;fontSize=18;sketch=1;fontStyle=1" vertex="1" parent="1">
          <mxGeometry x="140" y="1770" width="40" height="40" as="geometry" />
        </mxCell>
        <mxCell id="3_953Ben1oo5WWHwkarm-659" value="9" style="rounded=0;whiteSpace=wrap;html=1;fontSize=18;sketch=1;fontStyle=1" vertex="1" parent="1">
          <mxGeometry x="180" y="1770" width="40" height="40" as="geometry" />
        </mxCell>
        <mxCell id="3_953Ben1oo5WWHwkarm-660" value="22" style="rounded=0;whiteSpace=wrap;html=1;fontSize=18;sketch=1;fontStyle=1" vertex="1" parent="1">
          <mxGeometry x="220" y="1770" width="40" height="40" as="geometry" />
        </mxCell>
        <mxCell id="3_953Ben1oo5WWHwkarm-661" value="4" style="rounded=0;whiteSpace=wrap;html=1;fontSize=18;sketch=1;fontStyle=1" vertex="1" parent="1">
          <mxGeometry x="260" y="1770" width="40" height="40" as="geometry" />
        </mxCell>
        <mxCell id="3_953Ben1oo5WWHwkarm-662" value="21" style="rounded=0;whiteSpace=wrap;html=1;fontSize=18;sketch=1;fontStyle=1" vertex="1" parent="1">
          <mxGeometry x="300" y="1770" width="40" height="40" as="geometry" />
        </mxCell>
        <mxCell id="3_953Ben1oo5WWHwkarm-663" value="27" style="rounded=0;whiteSpace=wrap;html=1;fontSize=18;sketch=1;fontStyle=1;fillColor=#FFFFFF;" vertex="1" parent="1">
          <mxGeometry x="340" y="1770" width="40" height="40" as="geometry" />
        </mxCell>
        <mxCell id="3_953Ben1oo5WWHwkarm-664" value="19" style="rounded=0;whiteSpace=wrap;html=1;fontSize=18;sketch=1;fontStyle=1" vertex="1" parent="1">
          <mxGeometry x="380" y="1770" width="40" height="40" as="geometry" />
        </mxCell>
        <mxCell id="3_953Ben1oo5WWHwkarm-665" value="18" style="rounded=0;whiteSpace=wrap;html=1;fontSize=18;sketch=1;fontStyle=1" vertex="1" parent="1">
          <mxGeometry x="420" y="1770" width="40" height="40" as="geometry" />
        </mxCell>
        <mxCell id="3_953Ben1oo5WWHwkarm-666" value="17" style="rounded=0;whiteSpace=wrap;html=1;fontSize=18;sketch=1;fontStyle=1" vertex="1" parent="1">
          <mxGeometry x="460" y="1770" width="40" height="40" as="geometry" />
        </mxCell>
        <mxCell id="3_953Ben1oo5WWHwkarm-667" value="24" style="rounded=0;whiteSpace=wrap;html=1;fontSize=18;sketch=1;fontStyle=1" vertex="1" parent="1">
          <mxGeometry x="500" y="1770" width="40" height="40" as="geometry" />
        </mxCell>
        <mxCell id="3_953Ben1oo5WWHwkarm-668" value="30" style="rounded=0;whiteSpace=wrap;html=1;fontSize=18;sketch=1;fontStyle=1" vertex="1" parent="1">
          <mxGeometry x="540" y="1770" width="40" height="40" as="geometry" />
        </mxCell>
        <mxCell id="3_953Ben1oo5WWHwkarm-669" value="14" style="rounded=0;whiteSpace=wrap;html=1;fontSize=18;sketch=1;fontStyle=1" vertex="1" parent="1">
          <mxGeometry x="580" y="1770" width="40" height="40" as="geometry" />
        </mxCell>
        <mxCell id="3_953Ben1oo5WWHwkarm-670" value="15" style="rounded=0;whiteSpace=wrap;html=1;fontSize=18;sketch=1;fontStyle=1" vertex="1" parent="1">
          <mxGeometry x="620" y="1770" width="40" height="40" as="geometry" />
        </mxCell>
        <mxCell id="3_953Ben1oo5WWHwkarm-671" value="12" style="rounded=0;whiteSpace=wrap;html=1;fontSize=18;sketch=1;fontStyle=1" vertex="1" parent="1">
          <mxGeometry x="660" y="1770" width="40" height="40" as="geometry" />
        </mxCell>
        <mxCell id="3_953Ben1oo5WWHwkarm-672" value="20" style="rounded=0;whiteSpace=wrap;html=1;fontSize=18;sketch=1;fontStyle=1" vertex="1" parent="1">
          <mxGeometry x="700" y="1770" width="40" height="40" as="geometry" />
        </mxCell>
        <mxCell id="3_953Ben1oo5WWHwkarm-673" value="11" style="rounded=0;whiteSpace=wrap;html=1;fontSize=18;sketch=1;fontStyle=1" vertex="1" parent="1">
          <mxGeometry x="740" y="1770" width="40" height="40" as="geometry" />
        </mxCell>
        <mxCell id="3_953Ben1oo5WWHwkarm-674" value="19" style="rounded=0;whiteSpace=wrap;html=1;fontSize=18;sketch=1;fontStyle=1" vertex="1" parent="1">
          <mxGeometry x="780" y="1770" width="40" height="40" as="geometry" />
        </mxCell>
        <mxCell id="3_953Ben1oo5WWHwkarm-675" value="" style="group" vertex="1" connectable="0" parent="1">
          <mxGeometry x="120" y="1810" width="40" height="30" as="geometry" />
        </mxCell>
        <mxCell id="3_953Ben1oo5WWHwkarm-676" value="" style="endArrow=none;html=1;" edge="1" parent="3_953Ben1oo5WWHwkarm-675">
          <mxGeometry x="0.0983291175317964" width="7.125298371869322" height="50" as="geometry">
            <mxPoint x="40" y="30" as="sourcePoint" />
            <mxPoint x="0.09832911753181861" y="30" as="targetPoint" />
          </mxGeometry>
        </mxCell>
        <mxCell id="3_953Ben1oo5WWHwkarm-677" value="" style="endArrow=classic;html=1;strokeWidth=1;" edge="1" parent="3_953Ben1oo5WWHwkarm-675">
          <mxGeometry width="7.125298371869322" height="50" as="geometry">
            <mxPoint y="30" as="sourcePoint" />
            <mxPoint as="targetPoint" />
          </mxGeometry>
        </mxCell>
        <mxCell id="3_953Ben1oo5WWHwkarm-678" value="" style="endArrow=classic;html=1;strokeWidth=1;" edge="1" parent="3_953Ben1oo5WWHwkarm-675">
          <mxGeometry x="39.95154797107131" width="7.125298371869322" height="50" as="geometry">
            <mxPoint x="39.95154797107128" y="30" as="sourcePoint" />
            <mxPoint x="39.95154797107128" as="targetPoint" />
          </mxGeometry>
        </mxCell>
        <mxCell id="3_953Ben1oo5WWHwkarm-752" value="&lt;b style=&quot;font-size: 16px&quot;&gt;Iterasi 3&lt;/b&gt;" style="rounded=0;whiteSpace=wrap;html=1;sketch=1;strokeColor=#000000;fontSize=16;glass=0;shadow=1;fillColor=#FFFFFF;" vertex="1" parent="1">
          <mxGeometry x="20" y="1720" width="90" height="30" as="geometry" />
        </mxCell>
        <mxCell id="3_953Ben1oo5WWHwkarm-878" value="" style="endArrow=none;dashed=1;html=1;dashPattern=1 3;strokeWidth=6;fontSize=16;" edge="1" parent="1">
          <mxGeometry width="50" height="50" relative="1" as="geometry">
            <mxPoint x="370" y="1860" as="sourcePoint" />
            <mxPoint x="430" y="1860" as="targetPoint" />
          </mxGeometry>
        </mxCell>
        <mxCell id="3_953Ben1oo5WWHwkarm-879" value="1" style="rounded=0;whiteSpace=wrap;html=1;fontSize=18;fontStyle=1;sketch=1;fontColor=#333333;fillColor=#CCCCCC;" vertex="1" parent="1">
          <mxGeometry x="25" y="1970" width="40" height="40" as="geometry" />
        </mxCell>
        <mxCell id="3_953Ben1oo5WWHwkarm-880" value="3" style="rounded=0;whiteSpace=wrap;html=1;fontSize=18;sketch=1;fontStyle=1;fillColor=#CCCCCC;" vertex="1" parent="1">
          <mxGeometry x="65" y="1970" width="40" height="40" as="geometry" />
        </mxCell>
        <mxCell id="3_953Ben1oo5WWHwkarm-881" value="16" style="rounded=0;whiteSpace=wrap;html=1;fontSize=18;sketch=1;fontStyle=1;fillColor=#FFFFFF;" vertex="1" parent="1">
          <mxGeometry x="105" y="1970" width="40" height="40" as="geometry" />
        </mxCell>
        <mxCell id="3_953Ben1oo5WWHwkarm-882" value="6" style="rounded=0;whiteSpace=wrap;html=1;fontSize=18;sketch=1;fontStyle=1" vertex="1" parent="1">
          <mxGeometry x="145" y="1970" width="40" height="40" as="geometry" />
        </mxCell>
        <mxCell id="3_953Ben1oo5WWHwkarm-883" value="9" style="rounded=0;whiteSpace=wrap;html=1;fontSize=18;sketch=1;fontStyle=1" vertex="1" parent="1">
          <mxGeometry x="185" y="1970" width="40" height="40" as="geometry" />
        </mxCell>
        <mxCell id="3_953Ben1oo5WWHwkarm-884" value="22" style="rounded=0;whiteSpace=wrap;html=1;fontSize=18;sketch=1;fontStyle=1" vertex="1" parent="1">
          <mxGeometry x="225" y="1970" width="40" height="40" as="geometry" />
        </mxCell>
        <mxCell id="3_953Ben1oo5WWHwkarm-885" value="4" style="rounded=0;whiteSpace=wrap;html=1;fontSize=18;sketch=1;fontStyle=1;fillColor=#CCCCCC;" vertex="1" parent="1">
          <mxGeometry x="265" y="1970" width="40" height="40" as="geometry" />
        </mxCell>
        <mxCell id="3_953Ben1oo5WWHwkarm-886" value="21" style="rounded=0;whiteSpace=wrap;html=1;fontSize=18;sketch=1;fontStyle=1" vertex="1" parent="1">
          <mxGeometry x="305" y="1970" width="40" height="40" as="geometry" />
        </mxCell>
        <mxCell id="3_953Ben1oo5WWHwkarm-887" value="27" style="rounded=0;whiteSpace=wrap;html=1;fontSize=18;sketch=1;fontStyle=1;fillColor=#FFFFFF;" vertex="1" parent="1">
          <mxGeometry x="345" y="1970" width="40" height="40" as="geometry" />
        </mxCell>
        <mxCell id="3_953Ben1oo5WWHwkarm-888" value="19" style="rounded=0;whiteSpace=wrap;html=1;fontSize=18;sketch=1;fontStyle=1" vertex="1" parent="1">
          <mxGeometry x="385" y="1970" width="40" height="40" as="geometry" />
        </mxCell>
        <mxCell id="3_953Ben1oo5WWHwkarm-889" value="18" style="rounded=0;whiteSpace=wrap;html=1;fontSize=18;sketch=1;fontStyle=1" vertex="1" parent="1">
          <mxGeometry x="425" y="1970" width="40" height="40" as="geometry" />
        </mxCell>
        <mxCell id="3_953Ben1oo5WWHwkarm-890" value="17" style="rounded=0;whiteSpace=wrap;html=1;fontSize=18;sketch=1;fontStyle=1" vertex="1" parent="1">
          <mxGeometry x="465" y="1970" width="40" height="40" as="geometry" />
        </mxCell>
        <mxCell id="3_953Ben1oo5WWHwkarm-891" value="24" style="rounded=0;whiteSpace=wrap;html=1;fontSize=18;sketch=1;fontStyle=1" vertex="1" parent="1">
          <mxGeometry x="505" y="1970" width="40" height="40" as="geometry" />
        </mxCell>
        <mxCell id="3_953Ben1oo5WWHwkarm-892" value="30" style="rounded=0;whiteSpace=wrap;html=1;fontSize=18;sketch=1;fontStyle=1" vertex="1" parent="1">
          <mxGeometry x="545" y="1970" width="40" height="40" as="geometry" />
        </mxCell>
        <mxCell id="3_953Ben1oo5WWHwkarm-893" value="14" style="rounded=0;whiteSpace=wrap;html=1;fontSize=18;sketch=1;fontStyle=1" vertex="1" parent="1">
          <mxGeometry x="585" y="1970" width="40" height="40" as="geometry" />
        </mxCell>
        <mxCell id="3_953Ben1oo5WWHwkarm-894" value="15" style="rounded=0;whiteSpace=wrap;html=1;fontSize=18;sketch=1;fontStyle=1" vertex="1" parent="1">
          <mxGeometry x="625" y="1970" width="40" height="40" as="geometry" />
        </mxCell>
        <mxCell id="3_953Ben1oo5WWHwkarm-895" value="12" style="rounded=0;whiteSpace=wrap;html=1;fontSize=18;sketch=1;fontStyle=1" vertex="1" parent="1">
          <mxGeometry x="665" y="1970" width="40" height="40" as="geometry" />
        </mxCell>
        <mxCell id="3_953Ben1oo5WWHwkarm-896" value="20" style="rounded=0;whiteSpace=wrap;html=1;fontSize=18;sketch=1;fontStyle=1" vertex="1" parent="1">
          <mxGeometry x="705" y="1970" width="40" height="40" as="geometry" />
        </mxCell>
        <mxCell id="3_953Ben1oo5WWHwkarm-897" value="11" style="rounded=0;whiteSpace=wrap;html=1;fontSize=18;sketch=1;fontStyle=1" vertex="1" parent="1">
          <mxGeometry x="745" y="1970" width="40" height="40" as="geometry" />
        </mxCell>
        <mxCell id="3_953Ben1oo5WWHwkarm-898" value="19" style="rounded=0;whiteSpace=wrap;html=1;fontSize=18;sketch=1;fontStyle=1" vertex="1" parent="1">
          <mxGeometry x="785" y="1970" width="40" height="40" as="geometry" />
        </mxCell>
        <mxCell id="3_953Ben1oo5WWHwkarm-904" value="3" style="rounded=0;whiteSpace=wrap;html=1;fontSize=18;fontStyle=1;sketch=1;fillColor=#FFFFFF;" vertex="1" parent="1">
          <mxGeometry x="20" y="440" width="40" height="40" as="geometry" />
        </mxCell>
        <mxCell id="3_953Ben1oo5WWHwkarm-905" value="27" style="rounded=0;whiteSpace=wrap;html=1;fontSize=18;sketch=1;fontStyle=1" vertex="1" parent="1">
          <mxGeometry x="60" y="440" width="40" height="40" as="geometry" />
        </mxCell>
        <mxCell id="3_953Ben1oo5WWHwkarm-906" value="16" style="rounded=0;whiteSpace=wrap;html=1;fontSize=18;sketch=1;fontStyle=1" vertex="1" parent="1">
          <mxGeometry x="100" y="440" width="40" height="40" as="geometry" />
        </mxCell>
        <mxCell id="3_953Ben1oo5WWHwkarm-907" value="6" style="rounded=0;whiteSpace=wrap;html=1;fontSize=18;sketch=1;fontStyle=1" vertex="1" parent="1">
          <mxGeometry x="140" y="440" width="40" height="40" as="geometry" />
        </mxCell>
        <mxCell id="3_953Ben1oo5WWHwkarm-908" value="9" style="rounded=0;whiteSpace=wrap;html=1;fontSize=18;sketch=1;fontStyle=1" vertex="1" parent="1">
          <mxGeometry x="180" y="440" width="40" height="40" as="geometry" />
        </mxCell>
        <mxCell id="3_953Ben1oo5WWHwkarm-909" value="22" style="rounded=0;whiteSpace=wrap;html=1;fontSize=18;sketch=1;fontStyle=1" vertex="1" parent="1">
          <mxGeometry x="220" y="440" width="40" height="40" as="geometry" />
        </mxCell>
        <mxCell id="3_953Ben1oo5WWHwkarm-910" value="4" style="rounded=0;whiteSpace=wrap;html=1;fontSize=18;sketch=1;fontStyle=1" vertex="1" parent="1">
          <mxGeometry x="260" y="440" width="40" height="40" as="geometry" />
        </mxCell>
        <mxCell id="3_953Ben1oo5WWHwkarm-911" value="21" style="rounded=0;whiteSpace=wrap;html=1;fontSize=18;sketch=1;fontStyle=1" vertex="1" parent="1">
          <mxGeometry x="300" y="440" width="40" height="40" as="geometry" />
        </mxCell>
        <mxCell id="3_953Ben1oo5WWHwkarm-912" value="1" style="rounded=0;whiteSpace=wrap;html=1;fontSize=18;sketch=1;fontStyle=1;fillColor=#CCCCCC;" vertex="1" parent="1">
          <mxGeometry x="340" y="440" width="40" height="40" as="geometry" />
        </mxCell>
        <mxCell id="3_953Ben1oo5WWHwkarm-913" value="19" style="rounded=0;whiteSpace=wrap;html=1;fontSize=18;sketch=1;fontStyle=1" vertex="1" parent="1">
          <mxGeometry x="380" y="440" width="40" height="40" as="geometry" />
        </mxCell>
        <mxCell id="3_953Ben1oo5WWHwkarm-914" value="18" style="rounded=0;whiteSpace=wrap;html=1;fontSize=18;sketch=1;fontStyle=1" vertex="1" parent="1">
          <mxGeometry x="420" y="440" width="40" height="40" as="geometry" />
        </mxCell>
        <mxCell id="3_953Ben1oo5WWHwkarm-915" value="17" style="rounded=0;whiteSpace=wrap;html=1;fontSize=18;sketch=1;fontStyle=1" vertex="1" parent="1">
          <mxGeometry x="460" y="440" width="40" height="40" as="geometry" />
        </mxCell>
        <mxCell id="3_953Ben1oo5WWHwkarm-916" value="24" style="rounded=0;whiteSpace=wrap;html=1;fontSize=18;sketch=1;fontStyle=1" vertex="1" parent="1">
          <mxGeometry x="500" y="440" width="40" height="40" as="geometry" />
        </mxCell>
        <mxCell id="3_953Ben1oo5WWHwkarm-917" value="30" style="rounded=0;whiteSpace=wrap;html=1;fontSize=18;sketch=1;fontStyle=1" vertex="1" parent="1">
          <mxGeometry x="540" y="440" width="40" height="40" as="geometry" />
        </mxCell>
        <mxCell id="3_953Ben1oo5WWHwkarm-918" value="14" style="rounded=0;whiteSpace=wrap;html=1;fontSize=18;sketch=1;fontStyle=1" vertex="1" parent="1">
          <mxGeometry x="580" y="440" width="40" height="40" as="geometry" />
        </mxCell>
        <mxCell id="3_953Ben1oo5WWHwkarm-919" value="15" style="rounded=0;whiteSpace=wrap;html=1;fontSize=18;sketch=1;fontStyle=1" vertex="1" parent="1">
          <mxGeometry x="620" y="440" width="40" height="40" as="geometry" />
        </mxCell>
        <mxCell id="3_953Ben1oo5WWHwkarm-920" value="12" style="rounded=0;whiteSpace=wrap;html=1;fontSize=18;sketch=1;fontStyle=1" vertex="1" parent="1">
          <mxGeometry x="660" y="440" width="40" height="40" as="geometry" />
        </mxCell>
        <mxCell id="3_953Ben1oo5WWHwkarm-921" value="20" style="rounded=0;whiteSpace=wrap;html=1;fontSize=18;sketch=1;fontStyle=1" vertex="1" parent="1">
          <mxGeometry x="700" y="440" width="40" height="40" as="geometry" />
        </mxCell>
        <mxCell id="3_953Ben1oo5WWHwkarm-922" value="11" style="rounded=0;whiteSpace=wrap;html=1;fontSize=18;sketch=1;fontStyle=1" vertex="1" parent="1">
          <mxGeometry x="740" y="440" width="40" height="40" as="geometry" />
        </mxCell>
        <mxCell id="3_953Ben1oo5WWHwkarm-923" value="19" style="rounded=0;whiteSpace=wrap;html=1;fontSize=18;sketch=1;fontStyle=1" vertex="1" parent="1">
          <mxGeometry x="780" y="440" width="40" height="40" as="geometry" />
        </mxCell>
        <mxCell id="3_953Ben1oo5WWHwkarm-924" value="" style="group" vertex="1" connectable="0" parent="1">
          <mxGeometry x="360" y="480" width="40" height="30" as="geometry" />
        </mxCell>
        <mxCell id="3_953Ben1oo5WWHwkarm-925" value="" style="endArrow=none;html=1;" edge="1" parent="3_953Ben1oo5WWHwkarm-924">
          <mxGeometry x="0.09832911753179632" width="7.125298371869322" height="50" as="geometry">
            <mxPoint x="40" y="30" as="sourcePoint" />
            <mxPoint x="0.09832911753179632" y="30" as="targetPoint" />
          </mxGeometry>
        </mxCell>
        <mxCell id="3_953Ben1oo5WWHwkarm-926" value="" style="endArrow=classic;html=1;strokeWidth=1;" edge="1" parent="3_953Ben1oo5WWHwkarm-924">
          <mxGeometry width="7.125298371869322" height="50" as="geometry">
            <mxPoint y="30" as="sourcePoint" />
            <mxPoint as="targetPoint" />
          </mxGeometry>
        </mxCell>
        <mxCell id="3_953Ben1oo5WWHwkarm-927" value="" style="endArrow=classic;html=1;strokeWidth=1;" edge="1" parent="3_953Ben1oo5WWHwkarm-924">
          <mxGeometry x="39.95154797107129" width="7.125298371869322" height="50" as="geometry">
            <mxPoint x="39.951547971071285" y="30" as="sourcePoint" />
            <mxPoint x="39.951547971071285" as="targetPoint" />
          </mxGeometry>
        </mxCell>
        <mxCell id="3_953Ben1oo5WWHwkarm-928" value="1" style="rounded=0;whiteSpace=wrap;html=1;fontSize=18;fontStyle=1;sketch=1;fontColor=#333333;fillColor=#CCCCCC;" vertex="1" parent="1">
          <mxGeometry x="20" y="2140" width="40" height="40" as="geometry" />
        </mxCell>
        <mxCell id="3_953Ben1oo5WWHwkarm-929" value="3" style="rounded=0;whiteSpace=wrap;html=1;fontSize=18;sketch=1;fontStyle=1;fillColor=#CCCCCC;" vertex="1" parent="1">
          <mxGeometry x="60" y="2140" width="40" height="40" as="geometry" />
        </mxCell>
        <mxCell id="3_953Ben1oo5WWHwkarm-930" value="4" style="rounded=0;whiteSpace=wrap;html=1;fontSize=18;sketch=1;fontStyle=1;fillColor=#CCCCCC;" vertex="1" parent="1">
          <mxGeometry x="100" y="2140" width="40" height="40" as="geometry" />
        </mxCell>
        <mxCell id="3_953Ben1oo5WWHwkarm-931" value="6" style="rounded=0;whiteSpace=wrap;html=1;fontSize=18;sketch=1;fontStyle=1;fillColor=#CCCCCC;" vertex="1" parent="1">
          <mxGeometry x="140" y="2140" width="40" height="40" as="geometry" />
        </mxCell>
        <mxCell id="3_953Ben1oo5WWHwkarm-932" value="9" style="rounded=0;whiteSpace=wrap;html=1;fontSize=18;sketch=1;fontStyle=1" vertex="1" parent="1">
          <mxGeometry x="180" y="2140" width="40" height="40" as="geometry" />
        </mxCell>
        <mxCell id="3_953Ben1oo5WWHwkarm-933" value="22" style="rounded=0;whiteSpace=wrap;html=1;fontSize=18;sketch=1;fontStyle=1" vertex="1" parent="1">
          <mxGeometry x="220" y="2140" width="40" height="40" as="geometry" />
        </mxCell>
        <mxCell id="3_953Ben1oo5WWHwkarm-934" value="16" style="rounded=0;whiteSpace=wrap;html=1;fontSize=18;sketch=1;fontStyle=1" vertex="1" parent="1">
          <mxGeometry x="260" y="2140" width="40" height="40" as="geometry" />
        </mxCell>
        <mxCell id="3_953Ben1oo5WWHwkarm-935" value="21" style="rounded=0;whiteSpace=wrap;html=1;fontSize=18;sketch=1;fontStyle=1" vertex="1" parent="1">
          <mxGeometry x="300" y="2140" width="40" height="40" as="geometry" />
        </mxCell>
        <mxCell id="3_953Ben1oo5WWHwkarm-936" value="27" style="rounded=0;whiteSpace=wrap;html=1;fontSize=18;sketch=1;fontStyle=1;fillColor=#FFFFFF;" vertex="1" parent="1">
          <mxGeometry x="340" y="2140" width="40" height="40" as="geometry" />
        </mxCell>
        <mxCell id="3_953Ben1oo5WWHwkarm-937" value="19" style="rounded=0;whiteSpace=wrap;html=1;fontSize=18;sketch=1;fontStyle=1" vertex="1" parent="1">
          <mxGeometry x="380" y="2140" width="40" height="40" as="geometry" />
        </mxCell>
        <mxCell id="3_953Ben1oo5WWHwkarm-938" value="18" style="rounded=0;whiteSpace=wrap;html=1;fontSize=18;sketch=1;fontStyle=1" vertex="1" parent="1">
          <mxGeometry x="420" y="2140" width="40" height="40" as="geometry" />
        </mxCell>
        <mxCell id="3_953Ben1oo5WWHwkarm-939" value="17" style="rounded=0;whiteSpace=wrap;html=1;fontSize=18;sketch=1;fontStyle=1" vertex="1" parent="1">
          <mxGeometry x="460" y="2140" width="40" height="40" as="geometry" />
        </mxCell>
        <mxCell id="3_953Ben1oo5WWHwkarm-940" value="24" style="rounded=0;whiteSpace=wrap;html=1;fontSize=18;sketch=1;fontStyle=1" vertex="1" parent="1">
          <mxGeometry x="500" y="2140" width="40" height="40" as="geometry" />
        </mxCell>
        <mxCell id="3_953Ben1oo5WWHwkarm-941" value="30" style="rounded=0;whiteSpace=wrap;html=1;fontSize=18;sketch=1;fontStyle=1" vertex="1" parent="1">
          <mxGeometry x="540" y="2140" width="40" height="40" as="geometry" />
        </mxCell>
        <mxCell id="3_953Ben1oo5WWHwkarm-942" value="14" style="rounded=0;whiteSpace=wrap;html=1;fontSize=18;sketch=1;fontStyle=1" vertex="1" parent="1">
          <mxGeometry x="580" y="2140" width="40" height="40" as="geometry" />
        </mxCell>
        <mxCell id="3_953Ben1oo5WWHwkarm-943" value="15" style="rounded=0;whiteSpace=wrap;html=1;fontSize=18;sketch=1;fontStyle=1" vertex="1" parent="1">
          <mxGeometry x="620" y="2140" width="40" height="40" as="geometry" />
        </mxCell>
        <mxCell id="3_953Ben1oo5WWHwkarm-944" value="12" style="rounded=0;whiteSpace=wrap;html=1;fontSize=18;sketch=1;fontStyle=1" vertex="1" parent="1">
          <mxGeometry x="660" y="2140" width="40" height="40" as="geometry" />
        </mxCell>
        <mxCell id="3_953Ben1oo5WWHwkarm-945" value="20" style="rounded=0;whiteSpace=wrap;html=1;fontSize=18;sketch=1;fontStyle=1" vertex="1" parent="1">
          <mxGeometry x="700" y="2140" width="40" height="40" as="geometry" />
        </mxCell>
        <mxCell id="3_953Ben1oo5WWHwkarm-946" value="11" style="rounded=0;whiteSpace=wrap;html=1;fontSize=18;sketch=1;fontStyle=1" vertex="1" parent="1">
          <mxGeometry x="740" y="2140" width="40" height="40" as="geometry" />
        </mxCell>
        <mxCell id="3_953Ben1oo5WWHwkarm-947" value="19" style="rounded=0;whiteSpace=wrap;html=1;fontSize=18;sketch=1;fontStyle=1" vertex="1" parent="1">
          <mxGeometry x="780" y="2140" width="40" height="40" as="geometry" />
        </mxCell>
        <mxCell id="3_953Ben1oo5WWHwkarm-948" value="" style="group" vertex="1" connectable="0" parent="1">
          <mxGeometry x="160" y="2180" width="40" height="30" as="geometry" />
        </mxCell>
        <mxCell id="3_953Ben1oo5WWHwkarm-949" value="" style="endArrow=none;html=1;" edge="1" parent="3_953Ben1oo5WWHwkarm-948">
          <mxGeometry x="0.0983291175317964" width="7.125298371869322" height="50" as="geometry">
            <mxPoint x="40" y="30" as="sourcePoint" />
            <mxPoint x="0.09832911753181861" y="30" as="targetPoint" />
          </mxGeometry>
        </mxCell>
        <mxCell id="3_953Ben1oo5WWHwkarm-950" value="" style="endArrow=classic;html=1;strokeWidth=1;" edge="1" parent="3_953Ben1oo5WWHwkarm-948">
          <mxGeometry width="7.125298371869322" height="50" as="geometry">
            <mxPoint y="30" as="sourcePoint" />
            <mxPoint as="targetPoint" />
          </mxGeometry>
        </mxCell>
        <mxCell id="3_953Ben1oo5WWHwkarm-951" value="" style="endArrow=classic;html=1;strokeWidth=1;" edge="1" parent="3_953Ben1oo5WWHwkarm-948">
          <mxGeometry x="39.95154797107131" width="7.125298371869322" height="50" as="geometry">
            <mxPoint x="39.95154797107128" y="30" as="sourcePoint" />
            <mxPoint x="39.95154797107128" as="targetPoint" />
          </mxGeometry>
        </mxCell>
        <mxCell id="3_953Ben1oo5WWHwkarm-952" value="&lt;b style=&quot;font-size: 16px&quot;&gt;Iterasi 3&lt;/b&gt;" style="rounded=0;whiteSpace=wrap;html=1;sketch=1;strokeColor=#000000;fontSize=16;glass=0;shadow=1;fillColor=#FFFFFF;" vertex="1" parent="1">
          <mxGeometry x="20" y="2090" width="90" height="30" as="geometry" />
        </mxCell>
        <mxCell id="3_953Ben1oo5WWHwkarm-953" value="" style="endArrow=none;dashed=1;html=1;dashPattern=1 3;strokeWidth=6;fontSize=16;" edge="1" parent="1">
          <mxGeometry width="50" height="50" relative="1" as="geometry">
            <mxPoint x="370" y="2230" as="sourcePoint" />
            <mxPoint x="430" y="2230" as="targetPoint" />
          </mxGeometry>
        </mxCell>
        <mxCell id="3_953Ben1oo5WWHwkarm-900" value="&lt;b&gt;&lt;font style=&quot;font-size: 16px&quot;&gt;&amp;nbsp;Swapping&amp;nbsp;&lt;/font&gt;&lt;/b&gt;" style="endArrow=none;html=1;" edge="1" parent="1">
          <mxGeometry x="125.39331647012719" y="2010" width="28.50119348747728" height="50" as="geometry">
            <mxPoint x="285" y="2040" as="sourcePoint" />
            <mxPoint x="125.39331647012727" y="2040" as="targetPoint" />
          </mxGeometry>
        </mxCell>
        <mxCell id="3_953Ben1oo5WWHwkarm-901" value="" style="endArrow=classic;html=1;strokeWidth=1;" edge="1" parent="1">
          <mxGeometry x="125" y="2010" width="28.50119348747728" height="50" as="geometry">
            <mxPoint x="125" y="2040" as="sourcePoint" />
            <mxPoint x="125" y="2010" as="targetPoint" />
          </mxGeometry>
        </mxCell>
        <mxCell id="3_953Ben1oo5WWHwkarm-902" value="" style="endArrow=classic;html=1;strokeWidth=1;" edge="1" parent="1">
          <mxGeometry x="284.8061918842852" y="2010" width="28.50119348747728" height="50" as="geometry">
            <mxPoint x="284.8061918842851" y="2040" as="sourcePoint" />
            <mxPoint x="284.8061918842851" y="2010" as="targetPoint" />
          </mxGeometry>
        </mxCell>
        <mxCell id="3_953Ben1oo5WWHwkarm-1028" value="1" style="rounded=0;whiteSpace=wrap;html=1;fontSize=18;fontStyle=1;sketch=1;fontColor=#333333;fillColor=#CCCCCC;" vertex="1" parent="1">
          <mxGeometry x="20" y="2270" width="40" height="40" as="geometry" />
        </mxCell>
        <mxCell id="3_953Ben1oo5WWHwkarm-1029" value="3" style="rounded=0;whiteSpace=wrap;html=1;fontSize=18;sketch=1;fontStyle=1;fillColor=#CCCCCC;" vertex="1" parent="1">
          <mxGeometry x="60" y="2270" width="40" height="40" as="geometry" />
        </mxCell>
        <mxCell id="3_953Ben1oo5WWHwkarm-1030" value="4" style="rounded=0;whiteSpace=wrap;html=1;fontSize=18;sketch=1;fontStyle=1;fillColor=#CCCCCC;" vertex="1" parent="1">
          <mxGeometry x="100" y="2270" width="40" height="40" as="geometry" />
        </mxCell>
        <mxCell id="3_953Ben1oo5WWHwkarm-1031" value="6" style="rounded=0;whiteSpace=wrap;html=1;fontSize=18;sketch=1;fontStyle=1;fillColor=#CCCCCC;" vertex="1" parent="1">
          <mxGeometry x="140" y="2270" width="40" height="40" as="geometry" />
        </mxCell>
        <mxCell id="3_953Ben1oo5WWHwkarm-1032" value="9" style="rounded=0;whiteSpace=wrap;html=1;fontSize=18;sketch=1;fontStyle=1" vertex="1" parent="1">
          <mxGeometry x="180" y="2270" width="40" height="40" as="geometry" />
        </mxCell>
        <mxCell id="3_953Ben1oo5WWHwkarm-1033" value="22" style="rounded=0;whiteSpace=wrap;html=1;fontSize=18;sketch=1;fontStyle=1" vertex="1" parent="1">
          <mxGeometry x="220" y="2270" width="40" height="40" as="geometry" />
        </mxCell>
        <mxCell id="3_953Ben1oo5WWHwkarm-1034" value="16" style="rounded=0;whiteSpace=wrap;html=1;fontSize=18;sketch=1;fontStyle=1" vertex="1" parent="1">
          <mxGeometry x="260" y="2270" width="40" height="40" as="geometry" />
        </mxCell>
        <mxCell id="3_953Ben1oo5WWHwkarm-1035" value="21" style="rounded=0;whiteSpace=wrap;html=1;fontSize=18;sketch=1;fontStyle=1" vertex="1" parent="1">
          <mxGeometry x="300" y="2270" width="40" height="40" as="geometry" />
        </mxCell>
        <mxCell id="3_953Ben1oo5WWHwkarm-1036" value="27" style="rounded=0;whiteSpace=wrap;html=1;fontSize=18;sketch=1;fontStyle=1;fillColor=#FFFFFF;" vertex="1" parent="1">
          <mxGeometry x="340" y="2270" width="40" height="40" as="geometry" />
        </mxCell>
        <mxCell id="3_953Ben1oo5WWHwkarm-1037" value="19" style="rounded=0;whiteSpace=wrap;html=1;fontSize=18;sketch=1;fontStyle=1" vertex="1" parent="1">
          <mxGeometry x="380" y="2270" width="40" height="40" as="geometry" />
        </mxCell>
        <mxCell id="3_953Ben1oo5WWHwkarm-1038" value="18" style="rounded=0;whiteSpace=wrap;html=1;fontSize=18;sketch=1;fontStyle=1" vertex="1" parent="1">
          <mxGeometry x="420" y="2270" width="40" height="40" as="geometry" />
        </mxCell>
        <mxCell id="3_953Ben1oo5WWHwkarm-1039" value="17" style="rounded=0;whiteSpace=wrap;html=1;fontSize=18;sketch=1;fontStyle=1" vertex="1" parent="1">
          <mxGeometry x="460" y="2270" width="40" height="40" as="geometry" />
        </mxCell>
        <mxCell id="3_953Ben1oo5WWHwkarm-1040" value="24" style="rounded=0;whiteSpace=wrap;html=1;fontSize=18;sketch=1;fontStyle=1" vertex="1" parent="1">
          <mxGeometry x="500" y="2270" width="40" height="40" as="geometry" />
        </mxCell>
        <mxCell id="3_953Ben1oo5WWHwkarm-1041" value="30" style="rounded=0;whiteSpace=wrap;html=1;fontSize=18;sketch=1;fontStyle=1" vertex="1" parent="1">
          <mxGeometry x="540" y="2270" width="40" height="40" as="geometry" />
        </mxCell>
        <mxCell id="3_953Ben1oo5WWHwkarm-1042" value="14" style="rounded=0;whiteSpace=wrap;html=1;fontSize=18;sketch=1;fontStyle=1" vertex="1" parent="1">
          <mxGeometry x="580" y="2270" width="40" height="40" as="geometry" />
        </mxCell>
        <mxCell id="3_953Ben1oo5WWHwkarm-1043" value="15" style="rounded=0;whiteSpace=wrap;html=1;fontSize=18;sketch=1;fontStyle=1" vertex="1" parent="1">
          <mxGeometry x="620" y="2270" width="40" height="40" as="geometry" />
        </mxCell>
        <mxCell id="3_953Ben1oo5WWHwkarm-1044" value="12" style="rounded=0;whiteSpace=wrap;html=1;fontSize=18;sketch=1;fontStyle=1" vertex="1" parent="1">
          <mxGeometry x="660" y="2270" width="40" height="40" as="geometry" />
        </mxCell>
        <mxCell id="3_953Ben1oo5WWHwkarm-1045" value="20" style="rounded=0;whiteSpace=wrap;html=1;fontSize=18;sketch=1;fontStyle=1" vertex="1" parent="1">
          <mxGeometry x="700" y="2270" width="40" height="40" as="geometry" />
        </mxCell>
        <mxCell id="3_953Ben1oo5WWHwkarm-1046" value="11" style="rounded=0;whiteSpace=wrap;html=1;fontSize=18;sketch=1;fontStyle=1" vertex="1" parent="1">
          <mxGeometry x="740" y="2270" width="40" height="40" as="geometry" />
        </mxCell>
        <mxCell id="3_953Ben1oo5WWHwkarm-1047" value="19" style="rounded=0;whiteSpace=wrap;html=1;fontSize=18;sketch=1;fontStyle=1" vertex="1" parent="1">
          <mxGeometry x="780" y="2270" width="40" height="40" as="geometry" />
        </mxCell>
        <mxCell id="3_953Ben1oo5WWHwkarm-1048" value="" style="group" vertex="1" connectable="0" parent="1">
          <mxGeometry x="160" y="2310" width="640" height="30" as="geometry" />
        </mxCell>
        <mxCell id="3_953Ben1oo5WWHwkarm-1049" value="" style="endArrow=none;html=1;" edge="1" parent="3_953Ben1oo5WWHwkarm-1048">
          <mxGeometry x="1.5732658805087425" width="114.00477394990915" height="50" as="geometry">
            <mxPoint x="640" y="30" as="sourcePoint" />
            <mxPoint x="1.5732658805090978" y="30" as="targetPoint" />
          </mxGeometry>
        </mxCell>
        <mxCell id="3_953Ben1oo5WWHwkarm-1050" value="" style="endArrow=classic;html=1;strokeWidth=1;" edge="1" parent="3_953Ben1oo5WWHwkarm-1048">
          <mxGeometry width="114.00477394990915" height="50" as="geometry">
            <mxPoint y="30" as="sourcePoint" />
            <mxPoint as="targetPoint" />
          </mxGeometry>
        </mxCell>
        <mxCell id="3_953Ben1oo5WWHwkarm-1051" value="" style="endArrow=classic;html=1;strokeWidth=1;" edge="1" parent="3_953Ben1oo5WWHwkarm-1048">
          <mxGeometry x="639.2247675371409" width="114.00477394990915" height="50" as="geometry">
            <mxPoint x="639.2247675371405" y="30" as="sourcePoint" />
            <mxPoint x="639.2247675371405" as="targetPoint" />
          </mxGeometry>
        </mxCell>
        <mxCell id="3_953Ben1oo5WWHwkarm-1053" value="1" style="rounded=0;whiteSpace=wrap;html=1;fontSize=18;fontStyle=1;sketch=1;fontColor=#333333;fillColor=#CCCCCC;" vertex="1" parent="1">
          <mxGeometry x="20" y="1880" width="40" height="40" as="geometry" />
        </mxCell>
        <mxCell id="3_953Ben1oo5WWHwkarm-1054" value="3" style="rounded=0;whiteSpace=wrap;html=1;fontSize=18;sketch=1;fontStyle=1;fillColor=#CCCCCC;" vertex="1" parent="1">
          <mxGeometry x="60" y="1880" width="40" height="40" as="geometry" />
        </mxCell>
        <mxCell id="3_953Ben1oo5WWHwkarm-1055" value="16" style="rounded=0;whiteSpace=wrap;html=1;fontSize=18;sketch=1;fontStyle=1;fillColor=#FFFFFF;" vertex="1" parent="1">
          <mxGeometry x="100" y="1880" width="40" height="40" as="geometry" />
        </mxCell>
        <mxCell id="3_953Ben1oo5WWHwkarm-1056" value="6" style="rounded=0;whiteSpace=wrap;html=1;fontSize=18;sketch=1;fontStyle=1" vertex="1" parent="1">
          <mxGeometry x="140" y="1880" width="40" height="40" as="geometry" />
        </mxCell>
        <mxCell id="3_953Ben1oo5WWHwkarm-1057" value="9" style="rounded=0;whiteSpace=wrap;html=1;fontSize=18;sketch=1;fontStyle=1" vertex="1" parent="1">
          <mxGeometry x="180" y="1880" width="40" height="40" as="geometry" />
        </mxCell>
        <mxCell id="3_953Ben1oo5WWHwkarm-1058" value="22" style="rounded=0;whiteSpace=wrap;html=1;fontSize=18;sketch=1;fontStyle=1" vertex="1" parent="1">
          <mxGeometry x="220" y="1880" width="40" height="40" as="geometry" />
        </mxCell>
        <mxCell id="3_953Ben1oo5WWHwkarm-1059" value="4" style="rounded=0;whiteSpace=wrap;html=1;fontSize=18;sketch=1;fontStyle=1;fillColor=#CCCCCC;" vertex="1" parent="1">
          <mxGeometry x="260" y="1880" width="40" height="40" as="geometry" />
        </mxCell>
        <mxCell id="3_953Ben1oo5WWHwkarm-1060" value="21" style="rounded=0;whiteSpace=wrap;html=1;fontSize=18;sketch=1;fontStyle=1" vertex="1" parent="1">
          <mxGeometry x="300" y="1880" width="40" height="40" as="geometry" />
        </mxCell>
        <mxCell id="3_953Ben1oo5WWHwkarm-1061" value="27" style="rounded=0;whiteSpace=wrap;html=1;fontSize=18;sketch=1;fontStyle=1;fillColor=#FFFFFF;" vertex="1" parent="1">
          <mxGeometry x="340" y="1880" width="40" height="40" as="geometry" />
        </mxCell>
        <mxCell id="3_953Ben1oo5WWHwkarm-1062" value="19" style="rounded=0;whiteSpace=wrap;html=1;fontSize=18;sketch=1;fontStyle=1" vertex="1" parent="1">
          <mxGeometry x="380" y="1880" width="40" height="40" as="geometry" />
        </mxCell>
        <mxCell id="3_953Ben1oo5WWHwkarm-1063" value="18" style="rounded=0;whiteSpace=wrap;html=1;fontSize=18;sketch=1;fontStyle=1" vertex="1" parent="1">
          <mxGeometry x="420" y="1880" width="40" height="40" as="geometry" />
        </mxCell>
        <mxCell id="3_953Ben1oo5WWHwkarm-1064" value="17" style="rounded=0;whiteSpace=wrap;html=1;fontSize=18;sketch=1;fontStyle=1" vertex="1" parent="1">
          <mxGeometry x="460" y="1880" width="40" height="40" as="geometry" />
        </mxCell>
        <mxCell id="3_953Ben1oo5WWHwkarm-1065" value="24" style="rounded=0;whiteSpace=wrap;html=1;fontSize=18;sketch=1;fontStyle=1" vertex="1" parent="1">
          <mxGeometry x="500" y="1880" width="40" height="40" as="geometry" />
        </mxCell>
        <mxCell id="3_953Ben1oo5WWHwkarm-1066" value="30" style="rounded=0;whiteSpace=wrap;html=1;fontSize=18;sketch=1;fontStyle=1" vertex="1" parent="1">
          <mxGeometry x="540" y="1880" width="40" height="40" as="geometry" />
        </mxCell>
        <mxCell id="3_953Ben1oo5WWHwkarm-1067" value="14" style="rounded=0;whiteSpace=wrap;html=1;fontSize=18;sketch=1;fontStyle=1" vertex="1" parent="1">
          <mxGeometry x="580" y="1880" width="40" height="40" as="geometry" />
        </mxCell>
        <mxCell id="3_953Ben1oo5WWHwkarm-1068" value="15" style="rounded=0;whiteSpace=wrap;html=1;fontSize=18;sketch=1;fontStyle=1" vertex="1" parent="1">
          <mxGeometry x="620" y="1880" width="40" height="40" as="geometry" />
        </mxCell>
        <mxCell id="3_953Ben1oo5WWHwkarm-1069" value="12" style="rounded=0;whiteSpace=wrap;html=1;fontSize=18;sketch=1;fontStyle=1" vertex="1" parent="1">
          <mxGeometry x="660" y="1880" width="40" height="40" as="geometry" />
        </mxCell>
        <mxCell id="3_953Ben1oo5WWHwkarm-1070" value="20" style="rounded=0;whiteSpace=wrap;html=1;fontSize=18;sketch=1;fontStyle=1" vertex="1" parent="1">
          <mxGeometry x="700" y="1880" width="40" height="40" as="geometry" />
        </mxCell>
        <mxCell id="3_953Ben1oo5WWHwkarm-1071" value="11" style="rounded=0;whiteSpace=wrap;html=1;fontSize=18;sketch=1;fontStyle=1" vertex="1" parent="1">
          <mxGeometry x="740" y="1880" width="40" height="40" as="geometry" />
        </mxCell>
        <mxCell id="3_953Ben1oo5WWHwkarm-1072" value="19" style="rounded=0;whiteSpace=wrap;html=1;fontSize=18;sketch=1;fontStyle=1" vertex="1" parent="1">
          <mxGeometry x="780" y="1880" width="40" height="40" as="geometry" />
        </mxCell>
        <mxCell id="3_953Ben1oo5WWHwkarm-1073" value="" style="endArrow=none;html=1;" edge="1" parent="1">
          <mxGeometry x="280.19331647012723" y="1920" width="28.50119348747728" height="50" as="geometry">
            <mxPoint x="800" y="1950" as="sourcePoint" />
            <mxPoint x="280.1933164701273" y="1950" as="targetPoint" />
          </mxGeometry>
        </mxCell>
        <mxCell id="3_953Ben1oo5WWHwkarm-1074" value="" style="endArrow=classic;html=1;strokeWidth=1;" edge="1" parent="1">
          <mxGeometry x="798.82" y="1920" width="28.50119348747728" height="50" as="geometry">
            <mxPoint x="798.82" y="1950" as="sourcePoint" />
            <mxPoint x="798.82" y="1920" as="targetPoint" />
          </mxGeometry>
        </mxCell>
        <mxCell id="3_953Ben1oo5WWHwkarm-1075" value="" style="endArrow=classic;html=1;strokeWidth=1;" edge="1" parent="1">
          <mxGeometry x="278.8261918842852" y="1920" width="28.50119348747728" height="50" as="geometry">
            <mxPoint x="278.826191884285" y="1950" as="sourcePoint" />
            <mxPoint x="278.826191884285" y="1920" as="targetPoint" />
          </mxGeometry>
        </mxCell>
        <mxCell id="3_953Ben1oo5WWHwkarm-1076" value="1" style="rounded=0;whiteSpace=wrap;html=1;fontSize=18;fontStyle=1;sketch=1;fontColor=#333333;fillColor=#CCCCCC;" vertex="1" parent="1">
          <mxGeometry x="20" y="2430" width="40" height="40" as="geometry" />
        </mxCell>
        <mxCell id="3_953Ben1oo5WWHwkarm-1077" value="3" style="rounded=0;whiteSpace=wrap;html=1;fontSize=18;sketch=1;fontStyle=1;fillColor=#CCCCCC;" vertex="1" parent="1">
          <mxGeometry x="60" y="2430" width="40" height="40" as="geometry" />
        </mxCell>
        <mxCell id="3_953Ben1oo5WWHwkarm-1078" value="4" style="rounded=0;whiteSpace=wrap;html=1;fontSize=18;sketch=1;fontStyle=1;fillColor=#CCCCCC;" vertex="1" parent="1">
          <mxGeometry x="100" y="2430" width="40" height="40" as="geometry" />
        </mxCell>
        <mxCell id="3_953Ben1oo5WWHwkarm-1079" value="6" style="rounded=0;whiteSpace=wrap;html=1;fontSize=18;sketch=1;fontStyle=1;fillColor=#CCCCCC;" vertex="1" parent="1">
          <mxGeometry x="140" y="2430" width="40" height="40" as="geometry" />
        </mxCell>
        <mxCell id="3_953Ben1oo5WWHwkarm-1080" value="9" style="rounded=0;whiteSpace=wrap;html=1;fontSize=18;sketch=1;fontStyle=1;fillColor=#CCCCCC;" vertex="1" parent="1">
          <mxGeometry x="180" y="2430" width="40" height="40" as="geometry" />
        </mxCell>
        <mxCell id="3_953Ben1oo5WWHwkarm-1081" value="22" style="rounded=0;whiteSpace=wrap;html=1;fontSize=18;sketch=1;fontStyle=1" vertex="1" parent="1">
          <mxGeometry x="220" y="2430" width="40" height="40" as="geometry" />
        </mxCell>
        <mxCell id="3_953Ben1oo5WWHwkarm-1082" value="16" style="rounded=0;whiteSpace=wrap;html=1;fontSize=18;sketch=1;fontStyle=1" vertex="1" parent="1">
          <mxGeometry x="260" y="2430" width="40" height="40" as="geometry" />
        </mxCell>
        <mxCell id="3_953Ben1oo5WWHwkarm-1083" value="21" style="rounded=0;whiteSpace=wrap;html=1;fontSize=18;sketch=1;fontStyle=1" vertex="1" parent="1">
          <mxGeometry x="300" y="2430" width="40" height="40" as="geometry" />
        </mxCell>
        <mxCell id="3_953Ben1oo5WWHwkarm-1084" value="27" style="rounded=0;whiteSpace=wrap;html=1;fontSize=18;sketch=1;fontStyle=1;fillColor=#FFFFFF;" vertex="1" parent="1">
          <mxGeometry x="340" y="2430" width="40" height="40" as="geometry" />
        </mxCell>
        <mxCell id="3_953Ben1oo5WWHwkarm-1085" value="19" style="rounded=0;whiteSpace=wrap;html=1;fontSize=18;sketch=1;fontStyle=1" vertex="1" parent="1">
          <mxGeometry x="380" y="2430" width="40" height="40" as="geometry" />
        </mxCell>
        <mxCell id="3_953Ben1oo5WWHwkarm-1086" value="18" style="rounded=0;whiteSpace=wrap;html=1;fontSize=18;sketch=1;fontStyle=1" vertex="1" parent="1">
          <mxGeometry x="420" y="2430" width="40" height="40" as="geometry" />
        </mxCell>
        <mxCell id="3_953Ben1oo5WWHwkarm-1087" value="17" style="rounded=0;whiteSpace=wrap;html=1;fontSize=18;sketch=1;fontStyle=1" vertex="1" parent="1">
          <mxGeometry x="460" y="2430" width="40" height="40" as="geometry" />
        </mxCell>
        <mxCell id="3_953Ben1oo5WWHwkarm-1088" value="24" style="rounded=0;whiteSpace=wrap;html=1;fontSize=18;sketch=1;fontStyle=1" vertex="1" parent="1">
          <mxGeometry x="500" y="2430" width="40" height="40" as="geometry" />
        </mxCell>
        <mxCell id="3_953Ben1oo5WWHwkarm-1089" value="30" style="rounded=0;whiteSpace=wrap;html=1;fontSize=18;sketch=1;fontStyle=1" vertex="1" parent="1">
          <mxGeometry x="540" y="2430" width="40" height="40" as="geometry" />
        </mxCell>
        <mxCell id="3_953Ben1oo5WWHwkarm-1090" value="14" style="rounded=0;whiteSpace=wrap;html=1;fontSize=18;sketch=1;fontStyle=1" vertex="1" parent="1">
          <mxGeometry x="580" y="2430" width="40" height="40" as="geometry" />
        </mxCell>
        <mxCell id="3_953Ben1oo5WWHwkarm-1091" value="15" style="rounded=0;whiteSpace=wrap;html=1;fontSize=18;sketch=1;fontStyle=1" vertex="1" parent="1">
          <mxGeometry x="620" y="2430" width="40" height="40" as="geometry" />
        </mxCell>
        <mxCell id="3_953Ben1oo5WWHwkarm-1092" value="12" style="rounded=0;whiteSpace=wrap;html=1;fontSize=18;sketch=1;fontStyle=1" vertex="1" parent="1">
          <mxGeometry x="660" y="2430" width="40" height="40" as="geometry" />
        </mxCell>
        <mxCell id="3_953Ben1oo5WWHwkarm-1093" value="20" style="rounded=0;whiteSpace=wrap;html=1;fontSize=18;sketch=1;fontStyle=1" vertex="1" parent="1">
          <mxGeometry x="700" y="2430" width="40" height="40" as="geometry" />
        </mxCell>
        <mxCell id="3_953Ben1oo5WWHwkarm-1094" value="11" style="rounded=0;whiteSpace=wrap;html=1;fontSize=18;sketch=1;fontStyle=1" vertex="1" parent="1">
          <mxGeometry x="740" y="2430" width="40" height="40" as="geometry" />
        </mxCell>
        <mxCell id="3_953Ben1oo5WWHwkarm-1095" value="19" style="rounded=0;whiteSpace=wrap;html=1;fontSize=18;sketch=1;fontStyle=1" vertex="1" parent="1">
          <mxGeometry x="780" y="2430" width="40" height="40" as="geometry" />
        </mxCell>
        <mxCell id="3_953Ben1oo5WWHwkarm-1096" value="" style="group" vertex="1" connectable="0" parent="1">
          <mxGeometry x="200" y="2470" width="40" height="30" as="geometry" />
        </mxCell>
        <mxCell id="3_953Ben1oo5WWHwkarm-1097" value="" style="endArrow=none;html=1;" edge="1" parent="3_953Ben1oo5WWHwkarm-1096">
          <mxGeometry x="0.0983291175317964" width="7.125298371869322" height="50" as="geometry">
            <mxPoint x="40" y="30" as="sourcePoint" />
            <mxPoint x="0.09832911753181861" y="30" as="targetPoint" />
          </mxGeometry>
        </mxCell>
        <mxCell id="3_953Ben1oo5WWHwkarm-1098" value="" style="endArrow=classic;html=1;strokeWidth=1;" edge="1" parent="3_953Ben1oo5WWHwkarm-1096">
          <mxGeometry width="7.125298371869322" height="50" as="geometry">
            <mxPoint y="30" as="sourcePoint" />
            <mxPoint as="targetPoint" />
          </mxGeometry>
        </mxCell>
        <mxCell id="3_953Ben1oo5WWHwkarm-1099" value="" style="endArrow=classic;html=1;strokeWidth=1;" edge="1" parent="3_953Ben1oo5WWHwkarm-1096">
          <mxGeometry x="39.95154797107131" width="7.125298371869322" height="50" as="geometry">
            <mxPoint x="39.95154797107128" y="30" as="sourcePoint" />
            <mxPoint x="39.95154797107128" as="targetPoint" />
          </mxGeometry>
        </mxCell>
        <mxCell id="3_953Ben1oo5WWHwkarm-1100" value="&lt;b style=&quot;font-size: 16px&quot;&gt;Iterasi 4&lt;/b&gt;" style="rounded=0;whiteSpace=wrap;html=1;sketch=1;strokeColor=#000000;fontSize=16;glass=0;shadow=1;fillColor=#FFFFFF;" vertex="1" parent="1">
          <mxGeometry x="20" y="2380" width="90" height="30" as="geometry" />
        </mxCell>
        <mxCell id="3_953Ben1oo5WWHwkarm-1101" value="" style="endArrow=none;dashed=1;html=1;dashPattern=1 3;strokeWidth=6;fontSize=16;" edge="1" parent="1">
          <mxGeometry width="50" height="50" relative="1" as="geometry">
            <mxPoint x="370" y="2520" as="sourcePoint" />
            <mxPoint x="430" y="2520" as="targetPoint" />
          </mxGeometry>
        </mxCell>
      </root>
    </mxGraphModel>
  </diagram>
</mxfile>
